<?xml version="1.0" encoding="UTF-8"?>
<!DOCTYPE svg PUBLIC "-//W3C//DTD SVG 1.1//EN" "http://www.w3.org/Graphics/SVG/1.1/DTD/svg11.dtd">
<svg xmlns="http://www.w3.org/2000/svg" version="1.1" width="5200px" height="3250px" style="shape-rendering:geometricPrecision; text-rendering:geometricPrecision; image-rendering:optimizeQuality; fill-rule:evenodd; clip-rule:evenodd" xmlns:xlink="http://www.w3.org/1999/xlink">
<g><path style="opacity:0.993" fill="#00539b" d="M 1581.5,972.5 C 1581.08,973.222 1580.42,973.722 1579.5,974C 1721.5,974.167 1863.5,974.333 2005.5,974.5C 2147.83,974.5 2289.83,973.833 2431.5,972.5C 2432.5,1056.67 2432.83,1141 2432.5,1225.5C 1836.83,1225.67 1241.17,1225.5 645.5,1225C 644.549,1224.28 644.383,1223.45 645,1222.5C 682.917,1160.99 721.584,1099.99 761,1039.5C 763.945,1035.25 767.112,1031.25 770.5,1027.5C 772.105,1026.99 772.439,1026.33 771.5,1025.5C 771.833,1024.5 772.5,1023.83 773.5,1023.5C 775.105,1022.99 775.439,1022.33 774.5,1021.5C 776.788,1017.54 779.788,1014.21 783.5,1011.5C 786.562,1009.49 788.562,1007.16 789.5,1004.5C 793.568,1000.1 798.235,996.435 803.5,993.5C 804.327,994.439 804.994,994.105 805.5,992.5C 820.304,981.908 836.638,976.241 854.5,975.5C 855.833,976.833 857.167,976.833 858.5,975.5C 1010.39,974.338 1162.72,974.171 1315.5,975C 1316.33,1048.76 1316.83,1122.6 1317,1196.5C 1325.73,1166.64 1337.4,1137.97 1352,1110.5C 1356.69,1102.42 1361.86,1094.76 1367.5,1087.5C 1368.08,1088.55 1368.74,1088.38 1369.5,1087C 1369.27,1086.6 1368.94,1086.43 1368.5,1086.5C 1368.93,1085.29 1369.6,1084.29 1370.5,1083.5C 1371.08,1084.55 1371.74,1084.38 1372.5,1083C 1372.27,1082.6 1371.94,1082.43 1371.5,1082.5C 1373.53,1080.14 1375.53,1077.81 1377.5,1075.5C 1378.08,1076.55 1378.74,1076.38 1379.5,1075C 1379.27,1074.6 1378.94,1074.43 1378.5,1074.5C 1378.83,1073.5 1379.5,1072.83 1380.5,1072.5C 1381.08,1073.55 1381.74,1073.38 1382.5,1072C 1382.27,1071.6 1381.94,1071.43 1381.5,1071.5C 1389.73,1062.36 1398.39,1053.69 1407.5,1045.5C 1408.08,1046.55 1408.74,1046.38 1409.5,1045C 1409.27,1044.6 1408.94,1044.43 1408.5,1044.5C 1411.13,1042.18 1413.79,1039.84 1416.5,1037.5C 1417.08,1038.55 1417.74,1038.38 1418.5,1037C 1418.27,1036.6 1417.94,1036.43 1417.5,1036.5C 1462.3,998.895 1513.13,978.229 1570,974.5C 1573.58,972.71 1577.42,972.043 1581.5,972.5 Z"/></g>
<g><path style="opacity:0.706" fill="#155da2" d="M 1581.5,972.5 C 1864.83,972.5 2148.17,972.5 2431.5,972.5C 2289.83,973.833 2147.83,974.5 2005.5,974.5C 1863.5,974.333 1721.5,974.167 1579.5,974C 1580.42,973.722 1581.08,973.222 1581.5,972.5 Z"/></g>
<g><path style="opacity:0.994" fill="#00539b" d="M 3831.5,972.5 C 3831.08,973.222 3830.42,973.722 3829.5,974C 4132.83,974.667 4436.17,974.667 4739.5,974C 4740.06,973.617 4740.39,973.117 4740.5,972.5C 4741.22,972.918 4741.72,973.584 4742,974.5C 4742.17,1016.17 4742.33,1057.83 4742.5,1099.5C 4742.66,1141.92 4742.16,1184.25 4741,1226.5C 4348.86,1225.83 3956.7,1225.17 3564.5,1224.5C 3479.54,1225.5 3394.54,1225.83 3309.5,1225.5C 3309.17,1141.67 3309.5,1058 3310.5,974.5C 3311.17,975.833 3311.83,975.833 3312.5,974.5C 3396.11,974.383 3480.11,974.383 3564.5,974.5C 3564.33,1051.17 3564.5,1127.83 3565,1204.5C 3574.73,1167.05 3589.4,1131.71 3609,1098.5C 3614.32,1090.69 3620.15,1083.36 3626.5,1076.5C 3627.08,1077.55 3627.74,1077.38 3628.5,1076C 3628.27,1075.6 3627.94,1075.43 3627.5,1075.5C 3637.17,1065.17 3647.17,1055.17 3657.5,1045.5C 3657.43,1045.94 3657.6,1046.27 3658,1046.5C 3659.17,1045.33 3660.33,1044.17 3661.5,1043C 3661.27,1042.6 3660.94,1042.43 3660.5,1042.5C 3662.48,1040.86 3664.48,1039.2 3666.5,1037.5C 3667.08,1038.55 3667.74,1038.38 3668.5,1037C 3668.27,1036.6 3667.94,1036.43 3667.5,1036.5C 3668.94,1034.94 3670.61,1033.6 3672.5,1032.5C 3673.08,1033.55 3673.74,1033.38 3674.5,1032C 3674.27,1031.6 3673.94,1031.43 3673.5,1031.5C 3681.66,1024.01 3690.66,1017.67 3700.5,1012.5C 3701.33,1013.44 3701.99,1013.11 3702.5,1011.5C 3734.14,992.235 3767.97,980.568 3804,976.5C 3808.33,975.5 3812.67,974.5 3817,973.5C 3817.4,973.728 3817.57,974.062 3817.5,974.5C 3818.17,975.833 3818.83,975.833 3819.5,974.5C 3823.19,972.657 3827.19,971.99 3831.5,972.5 Z"/></g>
<g><path style="opacity:0.706" fill="#155da2" d="M 3831.5,972.5 C 4134.5,972.5 4437.5,972.5 4740.5,972.5C 4740.39,973.117 4740.06,973.617 4739.5,974C 4436.17,974.667 4132.83,974.667 3829.5,974C 3830.42,973.722 3831.08,973.222 3831.5,972.5 Z"/></g>
<g><path style="opacity:0.991" fill="#00539b" d="M 2476.5,974.5 C 2477.5,975.833 2478.5,975.833 2479.5,974.5C 2562.65,973.458 2645.98,973.458 2729.5,974.5C 2730.5,1058.16 2730.83,1141.83 2730.5,1225.5C 2645.83,1225.67 2561.17,1225.5 2476.5,1225C 2475.17,1141.4 2475.17,1057.9 2476.5,974.5 Z"/></g>
<g><path style="opacity:0.706" fill="#115ba0" d="M 2479.5,974.5 C 2478.5,975.833 2477.5,975.833 2476.5,974.5C 2477.5,973.167 2478.5,973.167 2479.5,974.5 Z"/></g>
<g><path style="opacity:0.706" fill="#105ba0" d="M 3312.5,974.5 C 3311.83,975.833 3311.17,975.833 3310.5,974.5C 3310.94,973.494 3311.6,973.494 3312.5,974.5 Z"/></g>
<g><path style="opacity:0.706" fill="#105ba0" d="M 3819.5,974.5 C 3818.83,975.833 3818.17,975.833 3817.5,974.5C 3818.4,973.494 3819.06,973.494 3819.5,974.5 Z"/></g>
<g><path style="opacity:0.706" fill="#105a9f" d="M 858.5,975.5 C 857.167,976.833 855.833,976.833 854.5,975.5C 855.664,975.165 856.997,975.165 858.5,975.5 Z"/></g>
<g><path style="opacity:0.853" fill="#00539b" d="M 4828.5,1032.5 C 4829.08,1033.55 4829.74,1033.38 4830.5,1032C 4830.27,1031.6 4829.94,1031.43 4829.5,1031.5C 4829.93,1030.29 4830.6,1029.29 4831.5,1028.5C 4832.08,1029.55 4832.74,1029.38 4833.5,1028C 4833.27,1027.6 4832.94,1027.43 4832.5,1027.5C 4833.03,1025.77 4834.03,1024.44 4835.5,1023.5C 4835.43,1023.94 4835.6,1024.27 4836,1024.5C 4837.17,1023.33 4838.33,1022.17 4839.5,1021C 4839.27,1020.6 4838.94,1020.43 4838.5,1020.5C 4839.83,1018.5 4841.5,1016.83 4843.5,1015.5C 4843.43,1015.94 4843.6,1016.27 4844,1016.5C 4844.83,1015.67 4845.67,1014.83 4846.5,1014C 4846.27,1013.6 4845.94,1013.43 4845.5,1013.5C 4846.58,1011.46 4848.25,1010.12 4850.5,1009.5C 4851.08,1010.55 4851.74,1010.38 4852.5,1009C 4852.27,1008.6 4851.94,1008.43 4851.5,1008.5C 4883.69,985.164 4918.69,980.33 4956.5,994C 5007.26,1018.68 5028.76,1059.18 5021,1115.5C 5010.81,1155.36 4986.31,1182.19 4947.5,1196C 4904.31,1207.08 4867.15,1196.58 4836,1164.5C 4808.15,1130.09 4802.15,1092.09 4818,1050.5C 4820.77,1043.94 4824.27,1037.94 4828.5,1032.5 Z M 4992.5,1153.5 C 4991.83,1153.5 4991.5,1153.83 4991.5,1154.5C 4961.8,1187 4926.13,1197.16 4884.5,1185C 4843.42,1168.4 4821.42,1137.9 4818.5,1093.5C 4821.61,1046.57 4845.28,1015.41 4889.5,1000C 4936.18,989.973 4972.68,1004.14 4999,1042.5C 5013.13,1067.56 5016.46,1093.9 5009,1121.5C 5005.32,1133.2 4999.82,1143.86 4992.5,1153.5 Z M 4891.5,1054.5 C 4903.82,1055.81 4916.16,1055.81 4928.5,1054.5C 4944.05,1056.24 4950.22,1064.91 4947,1080.5C 4944.61,1087.29 4939.78,1091.13 4932.5,1092C 4918.84,1092.5 4905.17,1092.67 4891.5,1092.5C 4891.94,1079.5 4891.94,1066.83 4891.5,1054.5 Z"/></g>
<g><path style="opacity:0.706" fill="#105ba0" d="M 805.5,992.5 C 804.994,994.105 804.327,994.439 803.5,993.5C 803.842,992.662 804.508,992.328 805.5,992.5 Z"/></g>
<g><path style="opacity:0.706" fill="#0f5a9f" d="M 789.5,1004.5 C 788.562,1007.16 786.562,1009.49 783.5,1011.5C 784.757,1008.57 786.757,1006.24 789.5,1004.5 Z"/></g>
<g><path style="opacity:0.706" fill="#105ba0" d="M 4851.5,1008.5 C 4851.94,1008.43 4852.27,1008.6 4852.5,1009C 4851.74,1010.38 4851.08,1010.55 4850.5,1009.5C 4850.5,1008.83 4850.83,1008.5 4851.5,1008.5 Z"/></g>
<g><path style="opacity:0.706" fill="#105ba0" d="M 3702.5,1011.5 C 3701.99,1013.11 3701.33,1013.44 3700.5,1012.5C 3700.84,1011.66 3701.51,1011.33 3702.5,1011.5 Z"/></g>
<g><path style="opacity:0.706" fill="#105aa0" d="M 4845.5,1013.5 C 4845.94,1013.43 4846.27,1013.6 4846.5,1014C 4845.67,1014.83 4844.83,1015.67 4844,1016.5C 4843.6,1016.27 4843.43,1015.94 4843.5,1015.5C 4843.83,1014.5 4844.5,1013.83 4845.5,1013.5 Z"/></g>
<g><path style="opacity:0.706" fill="#105ba0" d="M 774.5,1021.5 C 775.439,1022.33 775.105,1022.99 773.5,1023.5C 773.328,1022.51 773.662,1021.84 774.5,1021.5 Z"/></g>
<g><path style="opacity:0.706" fill="#0f5a9f" d="M 4838.5,1020.5 C 4838.94,1020.43 4839.27,1020.6 4839.5,1021C 4838.33,1022.17 4837.17,1023.33 4836,1024.5C 4835.6,1024.27 4835.43,1023.94 4835.5,1023.5C 4836.17,1022.17 4837.17,1021.17 4838.5,1020.5 Z"/></g>
<g><path style="opacity:0.706" fill="#105ba0" d="M 771.5,1025.5 C 772.439,1026.33 772.105,1026.99 770.5,1027.5C 770.328,1026.51 770.662,1025.84 771.5,1025.5 Z"/></g>
<g><path style="opacity:0.706" fill="#105ba0" d="M 4832.5,1027.5 C 4832.94,1027.43 4833.27,1027.6 4833.5,1028C 4832.74,1029.38 4832.08,1029.55 4831.5,1028.5C 4831.5,1027.83 4831.83,1027.5 4832.5,1027.5 Z"/></g>
<g><path style="opacity:0.706" fill="#105ba0" d="M 3673.5,1031.5 C 3673.94,1031.43 3674.27,1031.6 3674.5,1032C 3673.74,1033.38 3673.08,1033.55 3672.5,1032.5C 3672.5,1031.83 3672.83,1031.5 3673.5,1031.5 Z"/></g>
<g><path style="opacity:0.706" fill="#105ba0" d="M 4829.5,1031.5 C 4829.94,1031.43 4830.27,1031.6 4830.5,1032C 4829.74,1033.38 4829.08,1033.55 4828.5,1032.5C 4828.5,1031.83 4828.83,1031.5 4829.5,1031.5 Z"/></g>
<g><path style="opacity:0.706" fill="#105ba0" d="M 1417.5,1036.5 C 1417.94,1036.43 1418.27,1036.6 1418.5,1037C 1417.74,1038.38 1417.08,1038.55 1416.5,1037.5C 1416.5,1036.83 1416.83,1036.5 1417.5,1036.5 Z"/></g>
<g><path style="opacity:0.706" fill="#105ba0" d="M 3667.5,1036.5 C 3667.94,1036.43 3668.27,1036.6 3668.5,1037C 3667.74,1038.38 3667.08,1038.55 3666.5,1037.5C 3666.5,1036.83 3666.83,1036.5 3667.5,1036.5 Z"/></g>
<g><path style="opacity:0.91" fill="#00539b" d="M 4876.5,1039.5 C 4897.52,1039.16 4918.52,1039.66 4939.5,1041C 4955.68,1044.68 4964.01,1054.85 4964.5,1071.5C 4964.84,1083.65 4959.84,1092.82 4949.5,1099C 4955.49,1101.66 4959.33,1106.16 4961,1112.5C 4961.91,1122.82 4962.58,1133.15 4963,1143.5C 4963.37,1147.23 4965.03,1150.23 4968,1152.5C 4968.49,1153.79 4968.66,1155.13 4968.5,1156.5C 4961.8,1156.83 4955.13,1156.5 4948.5,1155.5C 4947.15,1143.21 4945.98,1130.88 4945,1118.5C 4943.4,1112.56 4939.56,1109.06 4933.5,1108C 4919.5,1107.5 4905.5,1107.33 4891.5,1107.5C 4892.29,1123.61 4892.62,1139.44 4892.5,1155C 4887.02,1156.45 4881.35,1156.95 4875.5,1156.5C 4875.17,1117.43 4875.51,1078.43 4876.5,1039.5 Z M 4891.5,1054.5 C 4891.94,1066.83 4891.94,1079.5 4891.5,1092.5C 4905.17,1092.67 4918.84,1092.5 4932.5,1092C 4939.78,1091.13 4944.61,1087.29 4947,1080.5C 4950.22,1064.91 4944.05,1056.24 4928.5,1054.5C 4916.16,1055.81 4903.82,1055.81 4891.5,1054.5 Z"/></g>
<g><path style="opacity:0.706" fill="#0f5a9f" d="M 3660.5,1042.5 C 3660.94,1042.43 3661.27,1042.6 3661.5,1043C 3660.33,1044.17 3659.17,1045.33 3658,1046.5C 3657.6,1046.27 3657.43,1045.94 3657.5,1045.5C 3658.17,1044.17 3659.17,1043.17 3660.5,1042.5 Z"/></g>
<g><path style="opacity:0.706" fill="#105ba0" d="M 1408.5,1044.5 C 1408.94,1044.43 1409.27,1044.6 1409.5,1045C 1408.74,1046.38 1408.08,1046.55 1407.5,1045.5C 1407.5,1044.83 1407.83,1044.5 1408.5,1044.5 Z"/></g>
<g><path style="opacity:0.706" fill="#105ba0" d="M 1381.5,1071.5 C 1381.94,1071.43 1382.27,1071.6 1382.5,1072C 1381.74,1073.38 1381.08,1073.55 1380.5,1072.5C 1380.5,1071.83 1380.83,1071.5 1381.5,1071.5 Z"/></g>
<g><path style="opacity:0.706" fill="#105ba0" d="M 1378.5,1074.5 C 1378.94,1074.43 1379.27,1074.6 1379.5,1075C 1378.74,1076.38 1378.08,1076.55 1377.5,1075.5C 1377.5,1074.83 1377.83,1074.5 1378.5,1074.5 Z"/></g>
<g><path style="opacity:0.706" fill="#105ba0" d="M 3627.5,1075.5 C 3627.94,1075.43 3628.27,1075.6 3628.5,1076C 3627.74,1077.38 3627.08,1077.55 3626.5,1076.5C 3626.5,1075.83 3626.83,1075.5 3627.5,1075.5 Z"/></g>
<g><path style="opacity:0.706" fill="#105ba0" d="M 1371.5,1082.5 C 1371.94,1082.43 1372.27,1082.6 1372.5,1083C 1371.74,1084.38 1371.08,1084.55 1370.5,1083.5C 1370.5,1082.83 1370.83,1082.5 1371.5,1082.5 Z"/></g>
<g><path style="opacity:0.706" fill="#105ba0" d="M 1368.5,1086.5 C 1368.94,1086.43 1369.27,1086.6 1369.5,1087C 1368.74,1088.38 1368.08,1088.55 1367.5,1087.5C 1367.5,1086.83 1367.83,1086.5 1368.5,1086.5 Z"/></g>
<g><path style="opacity:0.706" fill="#105ba0" d="M 4992.5,1153.5 C 4993.55,1154.08 4993.38,1154.74 4992,1155.5C 4991.6,1155.27 4991.43,1154.94 4991.5,1154.5C 4991.5,1153.83 4991.83,1153.5 4992.5,1153.5 Z"/></g>
<g><path style="opacity:0.706" fill="#155da2" d="M 1314.5,1201.5 C 1317,1201.51 1317.17,1202.18 1315,1203.5C 1314.54,1202.91 1314.37,1202.24 1314.5,1201.5 Z"/></g>
<g><path style="opacity:0.992" fill="#00539b" d="M 633.5,1239.5 C 727.855,1248.95 822.188,1258.61 916.5,1268.5C 916.509,1270.31 916.009,1271.98 915,1273.5C 775.873,1488.26 636.373,1702.76 496.5,1917C 396.498,1917.83 296.498,1917.67 196.5,1916.5C 342.618,1691.06 488.284,1465.4 633.5,1239.5 Z"/></g>
<g><path style="opacity:0.237" fill="#00529b" d="M 2480.5,1242.5 C 2479.83,1242.5 2479.5,1242.83 2479.5,1243.5C 2479.17,1243.5 2478.83,1243.5 2478.5,1243.5C 2478.71,1241.58 2479.38,1241.24 2480.5,1242.5 Z"/></g>
<g><path style="opacity:0.992" fill="#00539b" d="M 2480.5,1242.5 C 2564.1,1247.77 2647.6,1253.77 2731,1260.5C 2731.33,1374.83 2731.67,1489.17 2732,1603.5C 2738.22,1641.05 2760.05,1663.55 2797.5,1671C 2946.83,1671.67 3096.17,1671.67 3245.5,1671C 3255.57,1669.47 3265.24,1666.64 3274.5,1662.5C 3275.08,1663.55 3275.74,1663.38 3276.5,1662C 3276.27,1661.6 3275.94,1661.43 3275.5,1661.5C 3278.82,1659.17 3282.16,1656.84 3285.5,1654.5C 3285.43,1654.94 3285.6,1655.27 3286,1655.5C 3287.5,1654 3289,1652.5 3290.5,1651C 3290.27,1650.6 3289.94,1650.43 3289.5,1650.5C 3303.03,1635.1 3310.86,1617.1 3313,1596.5C 3313.5,1497.5 3313.67,1398.5 3313.5,1299.5C 3397.1,1303.82 3480.6,1308.82 3564,1314.5C 3564.67,1436.17 3564.67,1557.83 3564,1679.5C 3558.13,1773.79 3513.3,1842.29 3429.5,1885C 3393.39,1902.25 3355.22,1913.75 3315,1919.5C 3123,1919.5 2931,1919.5 2739,1919.5C 2654.94,1913.81 2586.27,1878.81 2533,1814.5C 2504.88,1776.28 2486.72,1733.95 2478.5,1687.5C 2480.5,1670.43 2480.5,1662.1 2478.5,1662.5C 2470.42,1745.84 2433.75,1813.34 2368.5,1865C 2330.59,1891.69 2288.76,1909.53 2243,1918.5C 1848.53,1917.55 1454.19,1917.55 1060,1918.5C 1059.59,1918.04 1059.09,1917.71 1058.5,1917.5C 1057.17,1704.83 1057.17,1492.17 1058.5,1279.5C 1140.72,1285.57 1222.88,1291.91 1305,1298.5C 1305.5,1422.17 1305.67,1545.83 1305.5,1669.5C 1604.83,1669.67 1904.17,1669.5 2203.5,1669C 2225.88,1664.96 2239.38,1651.79 2244,1629.5C 2247.79,1608.89 2241.29,1592.06 2224.5,1579C 2211.31,1572.51 2197.81,1569.68 2184,1570.5C 2181.33,1569.83 2178.67,1569.17 2176,1568.5C 2175.67,1568.83 2175.33,1569.17 2175,1569.5C 2153.54,1566.97 2132.38,1565.3 2111.5,1564.5C 2108.63,1563.88 2105.8,1563.21 2103,1562.5C 2097.92,1562.43 2092.76,1562.43 2087.5,1562.5C 2084.02,1561.79 2080.52,1561.13 2077,1560.5C 2076.23,1560.64 2075.56,1560.98 2075,1561.5C 2069.74,1559.95 2064.74,1559.61 2060,1560.5C 2057.73,1559.71 2055.4,1559.04 2053,1558.5C 2048.21,1558.47 2043.38,1558.47 2038.5,1558.5C 2031,1557.27 2023.5,1556.27 2016,1555.5C 2015.59,1555.96 2015.09,1556.29 2014.5,1556.5C 2011.63,1555.88 2008.8,1555.21 2006,1554.5C 2004.73,1554.62 2003.4,1554.95 2002,1555.5C 1994.57,1553.95 1987.24,1552.95 1980,1552.5C 1975.04,1552.45 1970.04,1552.45 1965,1552.5C 1957.27,1551.62 1949.6,1550.62 1942,1549.5C 1941.23,1549.64 1940.56,1549.98 1940,1550.5C 1936.04,1548.98 1932.38,1548.64 1929,1549.5C 1917.82,1548.27 1906.49,1546.94 1895,1545.5C 1893.09,1545.42 1891.09,1545.75 1889,1546.5C 1874.59,1545.44 1860.09,1543.77 1845.5,1541.5C 1842.19,1542.41 1839.03,1542.08 1836,1540.5C 1830.27,1540.71 1824.27,1540.71 1818,1540.5C 1816,1539.83 1814,1539.17 1812,1538.5C 1806.27,1538.71 1800.27,1538.71 1794,1538.5C 1792,1537.83 1790,1537.17 1788,1536.5C 1786.42,1536.49 1784.75,1536.83 1783,1537.5C 1771.22,1535.94 1759.72,1534.6 1748.5,1533.5C 1746.63,1533.95 1744.8,1534.28 1743,1534.5C 1739.79,1532.52 1736.45,1532.18 1733,1533.5C 1722.65,1532.07 1712.65,1530.74 1703,1529.5C 1699.93,1529.52 1696.93,1529.86 1694,1530.5C 1693.25,1529.87 1692.42,1529.37 1691.5,1529C 1686.91,1528.8 1682.41,1528.3 1678,1527.5C 1676.6,1527.5 1675.1,1527.83 1673.5,1528.5C 1667.27,1527.41 1660.77,1526.41 1654,1525.5C 1651.44,1526.09 1648.77,1526.42 1646,1526.5C 1644.29,1525.24 1642.63,1524.9 1641,1525.5C 1632.77,1524.7 1624.27,1523.7 1615.5,1522.5C 1612.34,1523.31 1609.17,1522.98 1606,1521.5C 1604.09,1521.42 1602.09,1521.75 1600,1522.5C 1596.07,1520.73 1592.07,1520.4 1588,1521.5C 1586,1520.83 1584,1520.17 1582,1519.5C 1576.27,1519.48 1570.27,1519.48 1564,1519.5C 1515.99,1511.65 1472.16,1494.98 1432.5,1469.5C 1375,1427.33 1340,1371.16 1327.5,1301C 1328.11,1300.13 1328.94,1299.63 1330,1299.5C 1628.16,1323.18 1926.33,1347.01 2224.5,1371C 2280.66,1372.94 2330.33,1391.6 2373.5,1427C 2424.08,1470.74 2459.08,1524.57 2478.5,1588.5C 2479.5,1480.97 2479.83,1365.97 2479.5,1243.5C 2479.5,1242.83 2479.83,1242.5 2480.5,1242.5 Z"/></g>
<g><path style="opacity:0.706" fill="#155da2" d="M 2478.5,1243.5 C 2478.83,1243.5 2479.17,1243.5 2479.5,1243.5C 2479.83,1365.97 2479.5,1480.97 2478.5,1588.5C 2478.5,1473.5 2478.5,1358.5 2478.5,1243.5 Z"/></g>
<g><path style="opacity:0.992" fill="#00539b" d="M 3565.5,1848.5 C 3566.89,1873.36 3566.89,1850.69 3565.5,1780.5C 3565.5,1743.17 3565.5,1705.83 3565.5,1668.5C 3861.83,1668.67 4158.17,1668.5 4454.5,1668C 4468.08,1666.25 4480.75,1661.92 4492.5,1655C 4505.04,1640.32 4509.21,1623.49 4505,1604.5C 4498.64,1584.78 4485.31,1574.11 4465,1572.5C 4458.05,1571.12 4451.05,1570.12 4444,1569.5C 4443.59,1569.96 4443.09,1570.29 4442.5,1570.5C 4414.48,1567.63 4386.65,1564.96 4359,1562.5C 4358.23,1562.64 4357.56,1562.98 4357,1563.5C 4354.33,1562.83 4351.67,1562.17 4349,1561.5C 4344.09,1561.38 4339.09,1561.38 4334,1561.5C 4330.53,1560.8 4327.03,1560.13 4323.5,1559.5C 4320.2,1560.65 4316.7,1560.32 4313,1558.5C 4307.69,1558.44 4302.36,1558.44 4297,1558.5C 4249.12,1553.9 4201.45,1549.56 4154,1545.5C 4150.9,1546.54 4147.9,1546.21 4145,1544.5C 4139.37,1544.51 4133.37,1544.51 4127,1544.5C 4124.06,1543.74 4121.06,1543.08 4118,1542.5C 4113.21,1542.47 4108.38,1542.47 4103.5,1542.5C 4100.96,1541.88 4098.46,1541.22 4096,1540.5C 4090.8,1540.68 4085.3,1540.68 4079.5,1540.5C 4076.63,1539.88 4073.8,1539.21 4071,1538.5C 4064.58,1538.18 4058.24,1538.18 4052,1538.5C 4050.67,1537.83 4049.33,1537.17 4048,1536.5C 4046.09,1536.42 4044.09,1536.75 4042,1537.5C 4031.61,1536.11 4021.61,1534.77 4012,1533.5C 4005.95,1533.48 3999.95,1533.48 3994,1533.5C 3988,1532.2 3982,1531.2 3976,1530.5C 3972.26,1531.46 3968.26,1531.13 3964,1529.5C 3962.09,1529.42 3960.09,1529.75 3958,1530.5C 3956,1529.83 3954,1529.17 3952,1528.5C 3948.26,1529.46 3944.26,1529.13 3940,1527.5C 3937,1527.83 3934,1528.17 3931,1528.5C 3927.79,1526.52 3924.45,1526.18 3921,1527.5C 3914.24,1526.76 3907.41,1525.76 3900.5,1524.5C 3897.34,1525.31 3894.17,1524.98 3891,1523.5C 3884.62,1523.48 3878.29,1523.48 3872,1523.5C 3870.33,1522.83 3868.67,1522.17 3867,1521.5C 3806.77,1523.02 3749.6,1507.52 3695.5,1475C 3665.47,1454.3 3639.3,1429.47 3617,1400.5C 3599.86,1373.49 3587.36,1344.82 3579.5,1314.5C 3872.62,1331.28 4165.95,1349.12 4459.5,1368C 4552.9,1367.95 4627.73,1404.79 4684,1478.5C 4703.84,1505.51 4719.51,1534.85 4731,1566.5C 4736.99,1588.41 4739.82,1610.74 4739.5,1633.5C 4739.15,1720.8 4707.48,1794.3 4644.5,1854C 4598.95,1891.98 4546.45,1913.81 4487,1919.5C 4179.61,1919.5 3872.11,1919.5 3564.5,1919.5C 3564.17,1895.66 3564.5,1871.99 3565.5,1848.5 Z"/></g>
<g><path style="opacity:0.706" fill="#155da2" d="M 2478.5,1687.5 C 2478.5,1679.17 2478.5,1670.83 2478.5,1662.5C 2480.5,1662.1 2480.5,1670.43 2478.5,1687.5 Z"/></g>
<g><path style="opacity:0.706" fill="#0f5a9f" d="M 3289.5,1650.5 C 3289.94,1650.43 3290.27,1650.6 3290.5,1651C 3289,1652.5 3287.5,1654 3286,1655.5C 3285.6,1655.27 3285.43,1654.94 3285.5,1654.5C 3286.5,1652.83 3287.83,1651.5 3289.5,1650.5 Z"/></g>
<g><path style="opacity:0.706" fill="#105ba0" d="M 3275.5,1661.5 C 3275.94,1661.43 3276.27,1661.6 3276.5,1662C 3275.74,1663.38 3275.08,1663.55 3274.5,1662.5C 3274.5,1661.83 3274.83,1661.5 3275.5,1661.5 Z"/></g>
<g><path style="opacity:0.706" fill="#145da1" d="M 3565.5,1780.5 C 3566.89,1850.69 3566.89,1873.36 3565.5,1848.5C 3565.37,1826.81 3565.37,1804.14 3565.5,1780.5 Z"/></g>
<g><path style="opacity:0.953" fill="#00539b" d="M 4105.5,2132.5 C 4097.73,2133.14 4090.07,2133.8 4082.5,2134.5C 4083.66,2165.09 4083.82,2195.76 4083,2226.5C 4082.5,2227 4082,2227.5 4081.5,2228C 4076.83,2228.17 4072.17,2228.33 4067.5,2228.5C 4061.85,2228.1 4056.35,2228.1 4051,2228.5C 4050.5,2197.17 4050.33,2165.84 4050.5,2134.5C 4044.99,2134.62 4039.65,2134.62 4034.5,2134.5C 4033.67,2129.2 4033.17,2123.86 4033,2118.5C 4030.85,2126.13 4028.01,2133.46 4024.5,2140.5C 4016.61,2135.16 4008.61,2134.33 4000.5,2138C 3996.57,2141.69 3994.07,2146.19 3993,2151.5C 3991.97,2156.78 3991.31,2162.12 3991,2167.5C 3990.67,2187.5 3990.33,2207.5 3990,2227.5C 3979.91,2228.65 3969.74,2228.82 3959.5,2228C 3958.5,2187.91 3958.17,2147.74 3958.5,2107.5C 3968.19,2107.17 3977.86,2107.5 3987.5,2108.5C 3988.27,2112.78 3988.77,2117.11 3989,2121.5C 3994.12,2113.04 4001.45,2107.7 4011,2105.5C 4011.4,2105.73 4011.57,2106.06 4011.5,2106.5C 4013.17,2107.83 4014.83,2107.83 4016.5,2106.5C 4022.39,2106.18 4027.89,2107.85 4033,2111.5C 4033.31,2110.23 4033.81,2109.07 4034.5,2108C 4039.82,2107.5 4045.16,2107.33 4050.5,2107.5C 4050.17,2098.06 4051.01,2088.73 4053,2079.5C 4056.56,2071.61 4062.39,2066.11 4070.5,2063C 4084.56,2059.58 4098.56,2059.91 4112.5,2064C 4113.11,2065.23 4113.44,2066.56 4113.5,2068C 4112.43,2074.5 4111.43,2081 4110.5,2087.5C 4105.25,2087.13 4100.09,2086.46 4095,2085.5C 4092.14,2086.17 4089.31,2087.01 4086.5,2088C 4085.11,2089.17 4084.27,2090.67 4084,2092.5C 4083.81,2097.42 4083.31,2102.25 4082.5,2107C 4090.41,2107.18 4098.25,2107.68 4106,2108.5C 4106.82,2116.68 4106.66,2124.68 4105.5,2132.5 Z"/></g>
<g><path style="opacity:0.974" fill="#00529b" d="M 233.5,2226.5 C 222.986,2226.17 212.653,2226.51 202.5,2227.5C 202.19,2228.74 201.69,2228.74 201,2227.5C 200.5,2172.83 200.333,2118.17 200.5,2063.5C 211.5,2063.5 222.5,2063.5 233.5,2063.5C 233.5,2117.83 233.5,2172.17 233.5,2226.5 Z"/></g>
<g><path style="opacity:0.91" fill="#00539b" d="M 662.5,2063.5 C 673.167,2063.5 683.833,2063.5 694.5,2063.5C 694.974,2074 694.474,2084.33 693,2094.5C 682.958,2094.76 672.791,2094.43 662.5,2093.5C 662.5,2083.5 662.5,2073.5 662.5,2063.5 Z"/></g>
<g><path style="opacity:0.887" fill="#00539b" d="M 812.5,2063.5 C 823.172,2063.33 833.839,2063.5 844.5,2064C 845.833,2073.67 845.833,2083.33 844.5,2093C 842.899,2093.27 841.399,2093.77 840,2094.5C 831.111,2093.94 821.945,2093.61 812.5,2093.5C 812.5,2083.5 812.5,2073.5 812.5,2063.5 Z"/></g>
<g><path style="opacity:0.949" fill="#00539b" d="M 1212.5,2063.5 C 1223.5,2063.5 1234.5,2063.5 1245.5,2063.5C 1245.67,2118.17 1245.5,2172.83 1245,2227.5C 1234.58,2228.65 1224.08,2228.82 1213.5,2228C 1213,2227.5 1212.5,2227 1212,2226.5C 1211.17,2172.1 1211.34,2117.76 1212.5,2063.5 Z"/></g>
<g><path style="opacity:0.914" fill="#00539b" d="M 2011.5,2063.5 C 2022.17,2063.5 2032.83,2063.5 2043.5,2063.5C 2043.5,2073.5 2043.5,2083.5 2043.5,2093.5C 2032.96,2094.43 2022.63,2094.43 2012.5,2093.5C 2011.5,2083.52 2011.17,2073.52 2011.5,2063.5 Z"/></g>
<g><path style="opacity:0.965" fill="#00539b" d="M 2536.5,2063.5 C 2562.84,2063.33 2589.17,2063.5 2615.5,2064C 2645.28,2067.78 2660.28,2084.78 2660.5,2115C 2659.95,2140.46 2647.95,2156.79 2624.5,2164C 2616.62,2165.17 2608.79,2166.34 2601,2167.5C 2590.58,2166.51 2580.08,2166.18 2569.5,2166.5C 2569.67,2186.84 2569.5,2207.17 2569,2227.5C 2558.52,2228.43 2547.69,2228.77 2536.5,2228.5C 2536.5,2173.5 2536.5,2118.5 2536.5,2063.5 Z M 2621.5,2128.5 C 2619.83,2129.5 2618.5,2130.83 2617.5,2132.5C 2611.94,2135.02 2606.11,2136.68 2600,2137.5C 2590.04,2137.45 2579.88,2137.45 2569.5,2137.5C 2569.5,2122.5 2569.5,2107.5 2569.5,2092.5C 2582.87,2092.17 2596.2,2092.67 2609.5,2094C 2622.09,2097.93 2627.25,2106.43 2625,2119.5C 2624.38,2122.74 2623.21,2125.74 2621.5,2128.5 Z"/></g>
<g><path style="opacity:0.879" fill="#00529b" d="M 3022.5,2063.5 C 3033.17,2063.33 3043.84,2063.5 3054.5,2064C 3055.15,2068.75 3055.49,2073.59 3055.5,2078.5C 3055.62,2083.94 3055.12,2089.27 3054,2094.5C 3043.78,2093.94 3033.28,2093.61 3022.5,2093.5C 3022.5,2083.5 3022.5,2073.5 3022.5,2063.5 Z"/></g>
<g><path style="opacity:0.969" fill="#00539b" d="M 3685.5,2064.5 C 3711.66,2063.34 3738,2063.17 3764.5,2064C 3793.83,2067.66 3808.83,2084.33 3809.5,2114C 3808.48,2146.36 3791.81,2163.69 3759.5,2166C 3745.84,2166.5 3732.17,2166.67 3718.5,2166.5C 3718.5,2187.17 3718.5,2207.83 3718.5,2228.5C 3707.12,2229.14 3696.12,2228.48 3685.5,2226.5C 3686.83,2172.5 3686.83,2118.5 3685.5,2064.5 Z M 3770.5,2128.5 C 3768.83,2129.5 3767.5,2130.83 3766.5,2132.5C 3760.94,2135.02 3755.11,2136.68 3749,2137.5C 3739.04,2137.45 3728.88,2137.45 3718.5,2137.5C 3718.5,2122.5 3718.5,2107.5 3718.5,2092.5C 3731.87,2092.17 3745.2,2092.67 3758.5,2094C 3771.89,2098.61 3777.05,2107.78 3774,2121.5C 3772.82,2123.86 3771.65,2126.19 3770.5,2128.5 Z"/></g>
<g><path style="opacity:0.906" fill="#00529b" d="M 4446.5,2063.5 C 4457.17,2063.5 4467.83,2063.5 4478.5,2063.5C 4478.83,2073.52 4478.5,2083.52 4477.5,2093.5C 4467.37,2094.43 4457.04,2094.43 4446.5,2093.5C 4446.5,2083.5 4446.5,2073.5 4446.5,2063.5 Z"/></g>
<g><path style="opacity:0.706" fill="#0f5a9f" d="M 3685.5,2064.5 C 3686.83,2118.5 3686.83,2172.5 3685.5,2226.5C 3684.17,2172.5 3684.17,2118.5 3685.5,2064.5 Z"/></g>
<g><path style="opacity:0.947" fill="#00539b" d="M 1968.5,2066.5 C 1970.48,2079.79 1971.15,2093.46 1970.5,2107.5C 1977.42,2107.19 1984.26,2107.52 1991,2108.5C 1991.5,2117.16 1991.67,2125.83 1991.5,2134.5C 1984.5,2134.5 1977.5,2134.5 1970.5,2134.5C 1970.33,2155.84 1970.5,2177.17 1971,2198.5C 1972.53,2201.93 1975.2,2203.6 1979,2203.5C 1982.98,2203.05 1986.81,2202.05 1990.5,2200.5C 1992.13,2207.55 1993.13,2214.72 1993.5,2222C 1993.17,2223.5 1992.83,2225 1992.5,2226.5C 1990.39,2227.03 1988.55,2228.03 1987,2229.5C 1985.61,2228.19 1984.61,2228.52 1984,2230.5C 1976.27,2230.5 1968.44,2230.33 1960.5,2230C 1947.75,2227.25 1940.58,2219.41 1939,2206.5C 1938.81,2199.92 1938.31,2193.42 1937.5,2187C 1938.16,2169.86 1938.5,2152.36 1938.5,2134.5C 1934.23,2134.2 1930.07,2134.54 1926,2135.5C 1925.33,2134.83 1924.67,2134.17 1924,2133.5C 1923.33,2125.5 1923.33,2117.5 1924,2109.5C 1928.57,2107.91 1933.4,2106.91 1938.5,2106.5C 1938.26,2100.63 1937.92,2094.79 1937.5,2089C 1938.23,2087.6 1938.73,2086.1 1939,2084.5C 1949,2078.64 1958.84,2072.64 1968.5,2066.5 Z"/></g>
<g><path style="opacity:0.953" fill="#00539b" d="M 3242.5,2066.5 C 3244.48,2079.79 3245.15,2093.46 3244.5,2107.5C 3251.42,2107.19 3258.26,2107.52 3265,2108.5C 3265.5,2117.16 3265.67,2125.83 3265.5,2134.5C 3258.5,2134.5 3251.5,2134.5 3244.5,2134.5C 3244.33,2155.5 3244.5,2176.5 3245,2197.5C 3246.98,2202.91 3250.81,2204.74 3256.5,2203C 3259.52,2202.15 3262.52,2201.32 3265.5,2200.5C 3266.3,2207.3 3266.97,2214.14 3267.5,2221C 3267.4,2223.3 3266.73,2225.3 3265.5,2227C 3252.13,2231.57 3238.8,2231.57 3225.5,2227C 3216.83,2221.74 3212.67,2213.9 3213,2203.5C 3212.5,2180.5 3212.33,2157.5 3212.5,2134.5C 3208.23,2134.2 3204.07,2134.54 3200,2135.5C 3198.78,2134.23 3197.95,2132.73 3197.5,2131C 3198.42,2123.87 3198.42,2116.87 3197.5,2110C 3197.96,2109.59 3198.29,2109.09 3198.5,2108.5C 3203.12,2107.51 3207.79,2107.17 3212.5,2107.5C 3212.33,2099.83 3212.5,2092.16 3213,2084.5C 3223,2078.64 3232.84,2072.64 3242.5,2066.5 Z"/></g>
<g><path style="opacity:0.956" fill="#00539b" d="M 3579.5,2066.5 C 3581.48,2079.79 3582.15,2093.46 3581.5,2107.5C 3588.42,2107.19 3595.26,2107.52 3602,2108.5C 3602.5,2117.16 3602.67,2125.83 3602.5,2134.5C 3595.5,2134.5 3588.5,2134.5 3581.5,2134.5C 3581.33,2155.5 3581.5,2176.5 3582,2197.5C 3583.98,2202.91 3587.81,2204.74 3593.5,2203C 3596.52,2202.15 3599.52,2201.32 3602.5,2200.5C 3603.5,2209.13 3604.16,2217.8 3604.5,2226.5C 3589.74,2231.9 3575.07,2231.73 3560.5,2226C 3553.8,2220.94 3550.3,2214.1 3550,2205.5C 3549.5,2181.84 3549.33,2158.17 3549.5,2134.5C 3544.79,2134.62 3540.29,2134.62 3536,2134.5C 3535.5,2125.51 3535.33,2116.51 3535.5,2107.5C 3540.17,2107.5 3544.83,2107.5 3549.5,2107.5C 3549.33,2099.83 3549.5,2092.16 3550,2084.5C 3560,2078.64 3569.84,2072.64 3579.5,2066.5 Z"/></g>
<g><path style="opacity:0.964" fill="#00539b" d="M 4403.5,2067.5 C 4404.15,2081.26 4404.82,2094.93 4405.5,2108.5C 4412.59,2108.2 4419.59,2108.54 4426.5,2109.5C 4426.5,2117.83 4426.5,2126.17 4426.5,2134.5C 4419.46,2134.57 4412.62,2134.57 4406,2134.5C 4405.04,2156.22 4405.38,2177.88 4407,2199.5C 4408.39,2202.37 4410.73,2203.7 4414,2203.5C 4417.53,2202.91 4421.03,2202.24 4424.5,2201.5C 4424.84,2202.34 4425.51,2202.67 4426.5,2202.5C 4428.05,2210.43 4428.38,2218.43 4427.5,2226.5C 4425.39,2227.03 4423.55,2228.03 4422,2229.5C 4420.41,2228.27 4419.08,2228.61 4418,2230.5C 4409.92,2230.44 4401.92,2230.44 4394,2230.5C 4381.36,2226.52 4374.69,2217.85 4374,2204.5C 4373.5,2181.17 4373.33,2157.84 4373.5,2134.5C 4368.83,2134.5 4364.17,2134.5 4359.5,2134.5C 4359.33,2125.83 4359.5,2117.16 4360,2108.5C 4364.4,2107.53 4368.9,2107.2 4373.5,2107.5C 4373.17,2099.8 4373.5,2092.14 4374.5,2084.5C 4384.06,2078.56 4393.72,2072.89 4403.5,2067.5 Z"/></g>
<g><path style="opacity:0.706" fill="#145da1" d="M 4405.5,2107.5 C 4405.5,2107.83 4405.5,2108.17 4405.5,2108.5C 4404.82,2094.93 4404.15,2081.26 4403.5,2067.5C 4403.56,2066.96 4403.89,2066.62 4404.5,2066.5C 4405.5,2080.15 4405.83,2093.82 4405.5,2107.5 Z"/></g>
<g><path style="opacity:0.957" fill="#00539b" d="M 327.5,2106.5 C 329.833,2107.83 332.167,2107.83 334.5,2106.5C 352.275,2106.5 363.775,2115.17 369,2132.5C 370.463,2164.13 370.963,2195.79 370.5,2227.5C 359.833,2228.83 349.167,2228.83 338.5,2227.5C 338.35,2203.83 338.35,2180.5 338.5,2157.5C 338.268,2133.07 327.268,2125.91 305.5,2136C 301.619,2138.93 299.119,2142.76 298,2147.5C 297.005,2152.45 296.338,2157.45 296,2162.5C 295.667,2184.17 295.333,2205.83 295,2227.5C 284.582,2228.49 274.082,2228.82 263.5,2228.5C 263.168,2188.33 263.501,2148.33 264.5,2108.5C 273.833,2109.83 283.167,2109.83 292.5,2108.5C 293.326,2113.32 293.826,2118.32 294,2123.5C 302.992,2112.75 314.159,2107.09 327.5,2106.5 Z"/></g>
<g><path style="opacity:0.948" fill="#00539b" d="M 464.5,2202.5 C 465.078,2203.55 465.744,2203.38 466.5,2202C 466.272,2201.6 465.938,2201.43 465.5,2201.5C 468.057,2197.27 468.057,2193.1 465.5,2189C 450.573,2184.52 435.573,2180.18 420.5,2176C 393.918,2165.62 387.418,2147.45 401,2121.5C 410.895,2111.56 422.895,2106.22 437,2105.5C 447.496,2105.22 458.329,2106.39 469.5,2109C 484.229,2114.03 492.563,2124.03 494.5,2139C 485.22,2140.46 476.053,2142.3 467,2144.5C 462.883,2133.85 455.05,2128.85 443.5,2129.5C 436.973,2129.47 430.973,2131.14 425.5,2134.5C 422.613,2140.61 424.613,2144.44 431.5,2146C 447.692,2150.05 463.692,2154.71 479.5,2160C 495.649,2167.8 502.149,2180.63 499,2198.5C 493.88,2215.29 482.713,2225.45 465.5,2229C 444.172,2233.56 424.172,2230.4 405.5,2219.5C 402.178,2216.34 399.012,2213.01 396,2209.5C 393.643,2204.77 391.477,2199.93 389.5,2195C 390.167,2194.33 390.833,2193.67 391.5,2193C 401.812,2191.28 412.146,2189.78 422.5,2188.5C 423.297,2196.8 427.631,2202.3 435.5,2205C 445.527,2207.52 455.194,2206.69 464.5,2202.5 Z"/></g>
<g><path style="opacity:0.965" fill="#00539b" d="M 525.5,2109.5 C 535.084,2108.53 544.75,2108.19 554.5,2108.5C 555.326,2113.32 555.826,2118.32 556,2123.5C 557.666,2120.67 559.832,2118.34 562.5,2116.5C 563.078,2117.55 563.744,2117.38 564.5,2116C 564.272,2115.6 563.938,2115.43 563.5,2115.5C 582.14,2102.15 600.806,2102.32 619.5,2116C 634.002,2129.99 641.002,2147.15 640.5,2167.5C 640.963,2187.29 634.63,2204.45 621.5,2219C 615.55,2223.3 609.383,2227.14 603,2230.5C 595.582,2230.43 588.248,2230.43 581,2230.5C 571.895,2227.12 564.229,2221.79 558,2214.5C 557.667,2233.83 557.333,2253.17 557,2272.5C 547.333,2272.83 537.667,2273.17 528,2273.5C 527.586,2273.04 527.086,2272.71 526.5,2272.5C 525.5,2218.17 525.167,2163.84 525.5,2109.5 Z M 599.5,2197.5 C 598.5,2197.83 597.833,2198.5 597.5,2199.5C 578.147,2209.08 565.314,2203.41 559,2182.5C 556.006,2168.66 557.339,2155.33 563,2142.5C 572.687,2131.83 583.853,2130 596.5,2137C 602.142,2142.24 605.309,2148.74 606,2156.5C 607.078,2167.63 606.412,2178.63 604,2189.5C 602.672,2192.31 601.172,2194.98 599.5,2197.5 Z"/></g>
<g><path style="opacity:0.969" fill="#00539b" d="M 777.5,2106.5 C 779.167,2107.83 780.833,2107.83 782.5,2106.5C 786.812,2106.19 791.146,2107.03 795.5,2109C 798.076,2109.78 800.076,2111.28 801.5,2113.5C 798.02,2122.61 794.353,2131.61 790.5,2140.5C 782.606,2135.16 774.606,2134.33 766.5,2138C 760.219,2145.26 757.052,2153.76 757,2163.5C 756.5,2184.83 756.333,2206.16 756.5,2227.5C 755.5,2227.5 754.5,2227.5 753.5,2227.5C 743.985,2227.83 734.652,2227.49 725.5,2226.5C 725.5,2187.5 725.5,2148.5 725.5,2109.5C 734.652,2108.51 743.985,2108.17 753.5,2108.5C 753.334,2113.51 753.501,2118.51 754,2123.5C 755.363,2121.32 756.863,2119.32 758.5,2117.5C 759.078,2118.55 759.744,2118.38 760.5,2117C 760.272,2116.6 759.938,2116.43 759.5,2116.5C 764.05,2109.9 770.05,2106.57 777.5,2106.5 Z"/></g>
<g><path style="opacity:0.963" fill="#00539b" d="M 939.5,2106.5 C 941.833,2107.83 944.167,2107.83 946.5,2106.5C 968.383,2107.88 980.216,2119.55 982,2141.5C 982.667,2170.17 982.667,2198.83 982,2227.5C 972.244,2228.65 962.411,2228.82 952.5,2228C 951.328,2227.58 950.328,2226.91 949.5,2226C 950.421,2202.69 950.754,2179.69 950.5,2157C 950.931,2148.75 948.598,2141.41 943.5,2135C 931.736,2128.52 921.236,2130.69 912,2141.5C 910.803,2144.09 909.803,2146.76 909,2149.5C 907.899,2175.48 907.066,2201.48 906.5,2227.5C 896.881,2228.64 887.214,2228.81 877.5,2228C 876.584,2227.72 875.918,2227.22 875.5,2226.5C 876.833,2187.5 876.833,2148.5 875.5,2109.5C 879.951,2108.17 884.784,2107.51 890,2107.5C 894.833,2107.67 899.667,2107.83 904.5,2108C 905.307,2113.08 905.807,2118.25 906,2123.5C 914.588,2112.38 925.754,2106.72 939.5,2106.5 Z"/></g>
<g><path style="opacity:0.96" fill="#00539b" d="M 1051.5,2106.5 C 1053.83,2107.83 1056.17,2107.83 1058.5,2106.5C 1071.4,2107.21 1081.9,2112.87 1090,2123.5C 1090.17,2118.32 1090.67,2113.32 1091.5,2108.5C 1101.08,2108.18 1110.58,2108.51 1120,2109.5C 1120.5,2146.5 1120.67,2183.5 1120.5,2220.5C 1121.95,2236.05 1118.11,2250.05 1109,2262.5C 1100.36,2270.42 1090.69,2274.42 1080,2274.5C 1077.52,2276.31 1074.69,2276.98 1071.5,2276.5C 1071.61,2275.88 1071.94,2275.38 1072.5,2275C 1067.5,2274.33 1062.5,2274.33 1057.5,2275C 1058.06,2275.38 1058.39,2275.88 1058.5,2276.5C 1046,2276.24 1034.33,2273.07 1023.5,2267C 1013.31,2258.63 1008.65,2247.79 1009.5,2234.5C 1021.85,2235.23 1034.02,2236.9 1046,2239.5C 1046.36,2243.95 1048.53,2247.12 1052.5,2249C 1063.22,2251.69 1073.55,2250.69 1083.5,2246C 1084.67,2244.17 1085.83,2242.33 1087,2240.5C 1088.56,2230.56 1088.9,2220.56 1088,2210.5C 1080.5,2220.3 1071,2225.97 1059.5,2227.5C 1055.83,2226.17 1052.17,2226.17 1048.5,2227.5C 1027.01,2223.53 1013.51,2210.53 1008,2188.5C 1003.82,2169.74 1005.15,2151.41 1012,2133.5C 1014.03,2129.42 1016.53,2125.75 1019.5,2122.5C 1019.43,2122.94 1019.6,2123.27 1020,2123.5C 1021.5,2122 1023,2120.5 1024.5,2119C 1024.27,2118.6 1023.94,2118.43 1023.5,2118.5C 1031.49,2110.75 1040.82,2106.75 1051.5,2106.5 Z M 1078.5,2195.5 C 1077.83,2195.5 1077.5,2195.83 1077.5,2196.5C 1058.23,2205.58 1045.73,2199.92 1040,2179.5C 1036.9,2165.81 1038.57,2152.81 1045,2140.5C 1054.27,2130.71 1064.77,2128.87 1076.5,2135C 1085.48,2143.26 1089.82,2153.59 1089.5,2166C 1089.98,2177.53 1086.32,2187.36 1078.5,2195.5 Z"/></g>
<g><path style="opacity:0.943" fill="#00539b" d="M 1338.5,2106.5 C 1341.17,2107.83 1343.83,2107.83 1346.5,2106.5C 1371.15,2109.38 1382.98,2123.38 1382,2148.5C 1382.5,2174.83 1382.67,2201.16 1382.5,2227.5C 1381.5,2227.5 1380.5,2227.5 1379.5,2227.5C 1344.52,2226.77 1343.85,2226.77 1377.5,2227.5C 1368.43,2228.83 1359.26,2228.83 1350,2227.5C 1349.67,2201.17 1349.33,2174.83 1349,2148.5C 1346.95,2135.55 1339.78,2129.88 1327.5,2131.5C 1318.16,2133.24 1312,2138.57 1309,2147.5C 1307.72,2173.8 1307.06,2200.13 1307,2226.5C 1306.33,2227.17 1305.67,2227.83 1305,2228.5C 1295.13,2228.79 1285.13,2228.46 1275,2227.5C 1273.33,2187.41 1273.49,2147.74 1275.5,2108.5C 1284.83,2109.83 1294.17,2109.83 1303.5,2108.5C 1304.33,2113.32 1304.83,2118.32 1305,2123.5C 1306.7,2121.63 1308.54,2119.96 1310.5,2118.5C 1310.43,2118.94 1310.6,2119.27 1311,2119.5C 1311.83,2118.67 1312.67,2117.83 1313.5,2117C 1313.27,2116.6 1312.94,2116.43 1312.5,2116.5C 1320.08,2109.76 1328.74,2106.43 1338.5,2106.5 Z"/></g>
<g><path style="opacity:0.958" fill="#00539b" d="M 1476.5,2106.5 C 1478.83,2107.83 1481.17,2107.83 1483.5,2106.5C 1501.09,2107.22 1512.59,2116.22 1518,2133.5C 1519.44,2164.8 1519.94,2196.14 1519.5,2227.5C 1508.87,2228.43 1498.21,2228.76 1487.5,2228.5C 1487.93,2200.8 1487.43,2173.14 1486,2145.5C 1482.08,2134.63 1474.58,2130.13 1463.5,2132C 1454.85,2134.06 1449.02,2139.23 1446,2147.5C 1444.95,2153.12 1444.28,2158.78 1444,2164.5C 1443.83,2185.51 1443.33,2206.51 1442.5,2227.5C 1432.18,2228.78 1421.85,2228.78 1411.5,2227.5C 1411.33,2187.83 1411.5,2148.17 1412,2108.5C 1421.75,2107.51 1431.58,2107.18 1441.5,2107.5C 1441.33,2113.18 1441.5,2118.84 1442,2124.5C 1442.28,2123.58 1442.78,2122.92 1443.5,2122.5C 1443.43,2122.94 1443.6,2123.27 1444,2123.5C 1445.5,2122 1447,2120.5 1448.5,2119C 1448.27,2118.6 1447.94,2118.43 1447.5,2118.5C 1455.58,2110.28 1465.24,2106.28 1476.5,2106.5 Z"/></g>
<g><path style="opacity:0.957" fill="#00539b" d="M 1599.5,2106.5 C 1602.17,2107.83 1604.83,2107.83 1607.5,2106.5C 1631.42,2108.17 1648.59,2120.17 1659,2142.5C 1667.36,2166.98 1664.03,2189.65 1649,2210.5C 1630.31,2229.5 1608.31,2235.17 1583,2227.5C 1582.67,2227.83 1582.33,2228.17 1582,2228.5C 1581.18,2227.18 1580.02,2226.51 1578.5,2226.5C 1553.78,2215.28 1541.78,2195.78 1542.5,2168C 1542.33,2152.35 1546.99,2138.52 1556.5,2126.5C 1557.08,2127.55 1557.74,2127.38 1558.5,2126C 1558.27,2125.6 1557.94,2125.43 1557.5,2125.5C 1558.5,2123.83 1559.83,2122.5 1561.5,2121.5C 1561.43,2121.94 1561.6,2122.27 1562,2122.5C 1562.83,2121.67 1563.67,2120.83 1564.5,2120C 1564.27,2119.6 1563.94,2119.43 1563.5,2119.5C 1574.17,2110.85 1586.17,2106.52 1599.5,2106.5 Z M 1595.5,2133.5 C 1612.89,2131.13 1624.06,2138.46 1629,2155.5C 1631.11,2165.57 1630.77,2175.57 1628,2185.5C 1620.32,2202.09 1607.82,2207.25 1590.5,2201C 1583.43,2196.7 1578.93,2190.54 1577,2182.5C 1574.52,2170.96 1575.19,2159.63 1579,2148.5C 1582.82,2141.5 1588.32,2136.5 1595.5,2133.5 Z"/></g>
<g><path style="opacity:0.946" fill="#00539b" d="M 1861.5,2106.5 C 1853.22,2107.36 1853.89,2107.36 1863.5,2106.5C 1874.89,2105.85 1885.56,2108.68 1895.5,2115C 1903.38,2121.61 1907.21,2130.11 1907,2140.5C 1907.33,2163.17 1907.67,2185.83 1908,2208.5C 1909.53,2215.28 1911.36,2221.95 1913.5,2228.5C 1903.49,2228.67 1893.49,2228.5 1883.5,2228C 1880.53,2224.45 1878.69,2220.28 1878,2215.5C 1860.69,2231.75 1841.19,2234.92 1819.5,2225C 1804.14,2213.06 1799.97,2197.9 1807,2179.5C 1811.25,2171.92 1817.42,2166.42 1825.5,2163C 1841.43,2158.75 1857.43,2154.75 1873.5,2151C 1877.37,2139.85 1873.37,2133.35 1861.5,2131.5C 1857.94,2131.8 1853.94,2131.96 1849.5,2132C 1842.29,2133.71 1837.96,2138.21 1836.5,2145.5C 1826.44,2145.21 1816.44,2143.71 1806.5,2141C 1808.76,2131.63 1813.43,2123.8 1820.5,2117.5C 1820.43,2117.94 1820.6,2118.27 1821,2118.5C 1821.83,2117.67 1822.67,2116.83 1823.5,2116C 1823.27,2115.6 1822.94,2115.43 1822.5,2115.5C 1826.89,2111.97 1831.89,2109.47 1837.5,2108C 1845.88,2106.09 1853.88,2105.59 1861.5,2106.5 Z M 1872.5,2172.5 C 1873.5,2172.5 1874.5,2172.5 1875.5,2172.5C 1875.3,2177.35 1875.13,2182.35 1875,2187.5C 1872.85,2199.64 1865.52,2206.31 1853,2207.5C 1843.23,2207.15 1837.4,2201.98 1835.5,2192C 1836.63,2186.2 1839.96,2182.2 1845.5,2180C 1854.67,2177.63 1863.67,2175.13 1872.5,2172.5 Z"/></g>
<g><path style="opacity:0.957" fill="#00539b" d="M 2078.5,2129.5 C 2079.08,2130.55 2079.74,2130.38 2080.5,2129C 2080.27,2128.6 2079.94,2128.43 2079.5,2128.5C 2080.46,2126.54 2081.79,2124.87 2083.5,2123.5C 2084.08,2124.55 2084.74,2124.38 2085.5,2123C 2085.27,2122.6 2084.94,2122.43 2084.5,2122.5C 2086.6,2119.74 2089.26,2117.74 2092.5,2116.5C 2093.08,2117.55 2093.74,2117.38 2094.5,2116C 2094.27,2115.6 2093.94,2115.43 2093.5,2115.5C 2102.46,2109.8 2112.3,2106.46 2123,2105.5C 2150.16,2104.77 2170.16,2116.77 2183,2141.5C 2190.08,2162.42 2188.74,2182.76 2179,2202.5C 2164.21,2224.06 2143.88,2233.73 2118,2231.5C 2102.67,2228.33 2089.67,2221 2079,2209.5C 2064.96,2187.29 2062.96,2163.62 2073,2138.5C 2074.7,2135.33 2076.53,2132.33 2078.5,2129.5 Z M 2150.5,2190.5 C 2149.83,2190.5 2149.5,2190.83 2149.5,2191.5C 2147.86,2193.48 2146.2,2195.48 2144.5,2197.5C 2143.5,2197.83 2142.83,2198.5 2142.5,2199.5C 2124.36,2208.07 2110.86,2203.4 2102,2185.5C 2097.41,2170.36 2099.07,2156.02 2107,2142.5C 2115.51,2133.6 2125.68,2131.1 2137.5,2135C 2146.82,2140.13 2152.32,2147.96 2154,2158.5C 2155.36,2169.48 2154.2,2180.15 2150.5,2190.5 Z"/></g>
<g><path style="opacity:0.96" fill="#00539b" d="M 2275.5,2106.5 C 2277.83,2107.83 2280.17,2107.83 2282.5,2106.5C 2304.13,2107.63 2315.97,2119.29 2318,2141.5C 2318.83,2170.34 2318.66,2199 2317.5,2227.5C 2307.27,2226.81 2296.93,2226.14 2286.5,2225.5C 2286.89,2198.81 2286.39,2172.14 2285,2145.5C 2283.07,2138.4 2278.57,2133.74 2271.5,2131.5C 2257.11,2130.32 2247.95,2136.99 2244,2151.5C 2242.61,2177.14 2242.11,2202.81 2242.5,2228.5C 2232.49,2228.67 2222.49,2228.5 2212.5,2228C 2211.57,2226.81 2210.9,2225.47 2210.5,2224C 2210.85,2185.97 2211.02,2147.8 2211,2109.5C 2220.57,2107.54 2230.41,2106.87 2240.5,2107.5C 2240.33,2113.18 2240.5,2118.84 2241,2124.5C 2241.38,2123.06 2242.21,2122.06 2243.5,2121.5C 2243.43,2121.94 2243.6,2122.27 2244,2122.5C 2245.17,2121.33 2246.33,2120.17 2247.5,2119C 2247.27,2118.6 2246.94,2118.43 2246.5,2118.5C 2254.79,2110.84 2264.46,2106.84 2275.5,2106.5 Z"/></g>
<g><path style="opacity:0.945" fill="#00539b" d="M 2785.5,2177.5 C 2783.95,2176.27 2783.28,2176.27 2783.5,2177.5C 2759.33,2178.23 2735.17,2178.23 2711,2177.5C 2708.85,2191.02 2714.35,2200.18 2727.5,2205C 2741.01,2207.92 2749.34,2202.76 2752.5,2189.5C 2762.54,2190.67 2772.54,2192.17 2782.5,2194C 2783.67,2194.42 2784.67,2195.09 2785.5,2196C 2773.16,2223.34 2752.16,2234.67 2722.5,2230C 2695.56,2225.39 2680.56,2209.39 2677.5,2182C 2673.71,2162.44 2677.38,2143.94 2688.5,2126.5C 2689.85,2124.48 2691.52,2122.81 2693.5,2121.5C 2693.43,2121.94 2693.6,2122.27 2694,2122.5C 2695.17,2121.33 2696.33,2120.17 2697.5,2119C 2697.27,2118.6 2696.94,2118.43 2696.5,2118.5C 2705.87,2109.98 2717.03,2105.65 2730,2105.5C 2763.42,2107.58 2782.09,2125.58 2786,2159.5C 2786.82,2165.68 2786.65,2171.68 2785.5,2177.5 Z M 2727.5,2131.5 C 2730.95,2131.8 2734.12,2131.8 2737,2131.5C 2748.89,2135.63 2754.56,2143.96 2754,2156.5C 2739.57,2156.64 2725.07,2156.97 2710.5,2157.5C 2709.63,2144.57 2715.3,2135.91 2727.5,2131.5 Z"/></g>
<g><path style="opacity:0.96" fill="#00539b" d="M 2861.5,2105.5 C 2869.66,2105.45 2877.33,2107.28 2884.5,2111C 2885.06,2111.72 2885.39,2112.56 2885.5,2113.5C 2882.56,2122.66 2879.23,2131.66 2875.5,2140.5C 2867.83,2135.58 2859.83,2134.75 2851.5,2138C 2848.89,2139.94 2847.06,2142.44 2846,2145.5C 2843.51,2152.27 2842.18,2159.27 2842,2166.5C 2841.83,2186.84 2841.33,2207.17 2840.5,2227.5C 2839.91,2227.71 2839.41,2228.04 2839,2228.5C 2829.66,2228.8 2820.16,2228.47 2810.5,2227.5C 2809.5,2187.51 2809.17,2147.51 2809.5,2107.5C 2819.17,2107.33 2828.84,2107.5 2838.5,2108C 2839.3,2112.41 2839.8,2116.91 2840,2121.5C 2845.13,2113.17 2852.3,2107.84 2861.5,2105.5 Z"/></g>
<g><path style="opacity:0.946" fill="#00539b" d="M 2933.5,2105.5 C 2944.16,2105.18 2955.16,2106.35 2966.5,2109C 2981.27,2114.07 2989.6,2124.07 2991.5,2139C 2981.89,2140.94 2972.22,2142.44 2962.5,2143.5C 2960.76,2137.25 2956.76,2133.09 2950.5,2131C 2941.69,2128.97 2933.02,2129.63 2924.5,2133C 2920.8,2135.53 2919.97,2138.7 2922,2142.5C 2924.97,2144.4 2928.14,2145.9 2931.5,2147C 2946.82,2150.25 2961.82,2154.58 2976.5,2160C 2995.77,2169.84 3001.6,2185.01 2994,2205.5C 2987.1,2218.05 2976.6,2225.88 2962.5,2229C 2941.15,2234.11 2921.15,2230.78 2902.5,2219C 2894.92,2212.51 2889.59,2204.51 2886.5,2195C 2887.17,2194.33 2887.83,2193.67 2888.5,2193C 2898.81,2191.28 2909.15,2189.78 2919.5,2188.5C 2920.9,2198.4 2926.56,2204.23 2936.5,2206C 2944,2207.01 2951.33,2206.34 2958.5,2204C 2964.36,2200.99 2966.2,2196.49 2964,2190.5C 2962.42,2188.96 2960.59,2187.79 2958.5,2187C 2940.57,2183.52 2923.24,2178.19 2906.5,2171C 2893.23,2162.2 2888.4,2150.04 2892,2134.5C 2895.74,2121.76 2903.9,2113.26 2916.5,2109C 2922.26,2107.61 2927.93,2106.45 2933.5,2105.5 Z"/></g>
<g><path style="opacity:0.948" fill="#00539b" d="M 3121.5,2105.5 C 3133.22,2105.28 3144.89,2106.78 3156.5,2110C 3168.55,2115.56 3176.55,2124.72 3180.5,2137.5C 3179.97,2138.19 3179.31,2138.69 3178.5,2139C 3170.18,2140.56 3161.85,2142.06 3153.5,2143.5C 3152.23,2143.43 3151.06,2143.1 3150,2142.5C 3145.68,2133.33 3138.35,2129 3128,2129.5C 3123.08,2129.87 3118.24,2130.7 3113.5,2132C 3106.83,2136.33 3106.83,2140.67 3113.5,2145C 3125.67,2148.94 3138,2152.28 3150.5,2155C 3161.65,2157.82 3171.15,2163.32 3179,2171.5C 3188.95,2192.42 3184.45,2209.59 3165.5,2223C 3160.42,2225.91 3155.25,2227.75 3150,2228.5C 3149.67,2229.17 3149.33,2229.83 3149,2230.5C 3138.93,2230.51 3128.77,2230.34 3118.5,2230C 3096.39,2227.54 3081.72,2215.88 3074.5,2195C 3074.91,2194.05 3075.57,2193.39 3076.5,2193C 3085.69,2191.63 3094.85,2190.13 3104,2188.5C 3104.83,2188.83 3105.67,2189.17 3106.5,2189.5C 3108.41,2198.91 3114.08,2204.41 3123.5,2206C 3131.81,2207.25 3139.81,2206.25 3147.5,2203C 3152.45,2198.36 3152.79,2193.36 3148.5,2188C 3133.79,2184.46 3119.29,2180.29 3105,2175.5C 3082.43,2168.38 3074.43,2153.04 3081,2129.5C 3085.56,2120.61 3092.39,2114.11 3101.5,2110C 3108.2,2108.03 3114.87,2106.53 3121.5,2105.5 Z"/></g>
<g><path style="opacity:0.948" fill="#00539b" d="M 3326.5,2106.5 C 3329.17,2107.83 3331.83,2107.83 3334.5,2106.5C 3360.02,2108.06 3376.18,2121.4 3383,2146.5C 3385.22,2156.96 3386.22,2167.3 3386,2177.5C 3360.71,2177.59 3335.38,2177.59 3310,2177.5C 3309.19,2194.27 3317.03,2203.6 3333.5,2205.5C 3343.85,2205.33 3350.18,2200.16 3352.5,2190C 3363.24,2190.73 3373.91,2192.23 3384.5,2194.5C 3380.19,2208.62 3371.53,2219.12 3358.5,2226C 3340.56,2232.38 3322.56,2232.05 3304.5,2225C 3288.7,2215.27 3279.54,2201.1 3277,2182.5C 3273.88,2162.42 3277.55,2143.75 3288,2126.5C 3297.93,2113.62 3310.77,2106.95 3326.5,2106.5 Z M 3326.5,2131.5 C 3339.86,2129.82 3348.53,2135.15 3352.5,2147.5C 3353.01,2150.41 3353.68,2153.24 3354.5,2156C 3354,2156.5 3353.5,2157 3353,2157.5C 3338.9,2156.36 3324.74,2156.36 3310.5,2157.5C 3309.21,2144.75 3314.54,2136.09 3326.5,2131.5 Z"/></g>
<g><path style="opacity:0.96" fill="#00539b" d="M 3474.5,2106.5 C 3476.83,2107.83 3479.17,2107.83 3481.5,2106.5C 3499.09,2107.21 3510.59,2116.21 3516,2133.5C 3517.11,2150.3 3517.61,2167.13 3517.5,2184C 3517.33,2198.5 3517.17,2213 3517,2227.5C 3516.31,2228.74 3515.81,2228.74 3515.5,2227.5C 3506.01,2226.51 3496.35,2226.17 3486.5,2226.5C 3486.83,2203.99 3486.5,2181.66 3485.5,2159.5C 3486.68,2149.42 3483.68,2140.92 3476.5,2134C 3458.67,2128.33 3447.51,2134.49 3443,2152.5C 3441.96,2177.49 3441.13,2202.49 3440.5,2227.5C 3430.18,2228.78 3419.85,2228.78 3409.5,2227.5C 3409.17,2187.66 3409.5,2148 3410.5,2108.5C 3420.25,2108.19 3429.92,2108.53 3439.5,2109.5C 3439.33,2114.51 3439.5,2119.51 3440,2124.5C 3440.38,2123.06 3441.21,2122.06 3442.5,2121.5C 3442.43,2121.94 3442.6,2122.27 3443,2122.5C 3443.83,2121.67 3444.67,2120.83 3445.5,2120C 3445.27,2119.6 3444.94,2119.43 3444.5,2119.5C 3452.99,2111.24 3462.99,2106.91 3474.5,2106.5 Z"/></g>
<g><path style="opacity:0.947" fill="#00539b" d="M 3840.5,2123.5 C 3840.43,2123.94 3840.6,2124.27 3841,2124.5C 3842.83,2122.67 3844.67,2120.83 3846.5,2119C 3846.27,2118.6 3845.94,2118.43 3845.5,2118.5C 3856.94,2108.69 3870.11,2104.35 3885,2105.5C 3911.18,2109.01 3927.18,2123.68 3933,2149.5C 3934.2,2156.62 3935.03,2163.79 3935.5,2171C 3935.61,2173.7 3935.11,2176.2 3934,2178.5C 3909.05,2178.08 3884.05,2177.74 3859,2177.5C 3859.38,2197.54 3869.54,2206.71 3889.5,2205C 3895.86,2202.14 3899.86,2197.31 3901.5,2190.5C 3911.46,2190.46 3921.29,2191.8 3931,2194.5C 3932.37,2193.48 3933.2,2193.98 3933.5,2196C 3926.67,2215.4 3913.67,2226.56 3894.5,2229.5C 3877.9,2232.68 3862.24,2229.85 3847.5,2221C 3840.15,2215.31 3834.65,2208.14 3831,2199.5C 3822.19,2175.2 3823.85,2151.53 3836,2128.5C 3837.52,2126.76 3839.02,2125.09 3840.5,2123.5 Z M 3876.5,2131.5 C 3894.33,2131.5 3903.16,2140.16 3903,2157.5C 3888.64,2157.05 3874.14,2156.89 3859.5,2157C 3858.93,2144.39 3864.6,2135.89 3876.5,2131.5 Z"/></g>
<g><path style="opacity:0.945" fill="#00539b" d="M 4135.5,2116.5 C 4136.08,2117.55 4136.74,2117.38 4137.5,2116C 4137.27,2115.6 4136.94,2115.43 4136.5,2115.5C 4156.35,2102.83 4176.69,2102.33 4197.5,2114C 4209.63,2122.41 4217.13,2133.91 4220,2148.5C 4222.25,2158.43 4222.75,2168.43 4221.5,2178.5C 4196.31,2177.88 4171.14,2177.55 4146,2177.5C 4146.42,2197.59 4156.58,2206.75 4176.5,2205C 4182.95,2201.88 4187.29,2196.88 4189.5,2190C 4199.21,2190.67 4208.88,2192.01 4218.5,2194C 4220.28,2195.07 4220.78,2196.57 4220,2198.5C 4211.97,2217.68 4197.64,2228.68 4177,2231.5C 4168.8,2230.96 4160.64,2229.96 4152.5,2228.5C 4137.25,2225.14 4126.09,2216.14 4119,2201.5C 4109.55,2177.36 4110.55,2153.69 4122,2130.5C 4125.35,2124.65 4129.85,2119.98 4135.5,2116.5 Z M 4163.5,2131.5 C 4174.05,2130.11 4182.39,2134.27 4188.5,2144C 4188.17,2144.33 4187.83,2144.67 4187.5,2145C 4189.44,2148.41 4190.77,2152.08 4191.5,2156C 4190.58,2156.37 4189.75,2156.87 4189,2157.5C 4175,2156.17 4161,2156.17 4147,2157.5C 4145.89,2144.48 4151.39,2135.81 4163.5,2131.5 Z"/></g>
<g><path style="opacity:0.95" fill="#00539b" d="M 4292.5,2106.5 C 4295.17,2107.83 4297.83,2107.83 4300.5,2106.5C 4325.5,2106.78 4341.83,2119.11 4349.5,2143.5C 4349.29,2144.09 4348.96,2144.59 4348.5,2145C 4338.19,2147.05 4327.86,2148.88 4317.5,2150.5C 4314.73,2136.27 4306.07,2130.44 4291.5,2133C 4280.6,2135.95 4274.76,2143.11 4274,2154.5C 4273.33,2162.83 4273.33,2171.17 4274,2179.5C 4276.37,2197.54 4286.53,2205.37 4304.5,2203C 4307.32,2201.76 4309.99,2200.26 4312.5,2198.5C 4313.08,2199.55 4313.74,2199.38 4314.5,2198C 4314.27,2197.6 4313.94,2197.43 4313.5,2197.5C 4316.55,2192.07 4319.05,2186.4 4321,2180.5C 4330.39,2182.71 4339.89,2184.54 4349.5,2186C 4347.48,2208.38 4335.48,2222.71 4313.5,2229C 4282.74,2236.11 4259.74,2226.11 4244.5,2199C 4244.83,2198.67 4245.17,2198.33 4245.5,2198C 4243.31,2193.07 4241.81,2187.9 4241,2182.5C 4238.54,2165.1 4240.88,2148.43 4248,2132.5C 4258.22,2115.65 4273.05,2106.98 4292.5,2106.5 Z"/></g>
<g><path style="opacity:0.956" fill="#00539b" d="M 4514.5,2128.5 C 4515.08,2129.55 4515.74,2129.38 4516.5,2128C 4516.27,2127.6 4515.94,2127.43 4515.5,2127.5C 4522.91,2117.3 4532.91,2110.8 4545.5,2108C 4570.29,2101.8 4591.79,2108.3 4610,2127.5C 4627.56,2153.93 4627.9,2180.59 4611,2207.5C 4590.81,2230.28 4566.31,2236.44 4537.5,2226C 4519.6,2219.1 4508.44,2206.26 4504,2187.5C 4498.97,2166.18 4502.47,2146.52 4514.5,2128.5 Z M 4555.5,2133.5 C 4573.38,2131.57 4584.55,2139.23 4589,2156.5C 4591.28,2169.05 4589.61,2181.05 4584,2192.5C 4573.63,2204.48 4561.46,2206.65 4547.5,2199C 4538.61,2190.86 4534.28,2180.69 4534.5,2168.5C 4534.14,2157.07 4537.81,2147.23 4545.5,2139C 4548.77,2136.87 4552.1,2135.04 4555.5,2133.5 Z"/></g>
<g><path style="opacity:0.946" fill="#00539b" d="M 4710.5,2106.5 C 4712.83,2107.83 4715.17,2107.83 4717.5,2106.5C 4734.78,2106.94 4746.28,2115.61 4752,2132.5C 4753.45,2164.13 4753.95,2195.8 4753.5,2227.5C 4743.15,2228.78 4732.82,2228.78 4722.5,2227.5C 4721.94,2199.81 4721.11,2172.14 4720,2144.5C 4717.4,2136.91 4712.07,2132.57 4704,2131.5C 4692.71,2131.5 4684.71,2136.84 4680,2147.5C 4678.72,2173.8 4678.06,2200.13 4678,2226.5C 4677.5,2227 4677,2227.5 4676.5,2228C 4666.26,2228.82 4656.09,2228.65 4646,2227.5C 4645.33,2187.83 4645.33,2148.17 4646,2108.5C 4655.75,2107.51 4665.58,2107.18 4675.5,2107.5C 4675.33,2113.18 4675.5,2118.84 4676,2124.5C 4676.95,2122.91 4678.12,2121.57 4679.5,2120.5C 4680.08,2121.55 4680.74,2121.38 4681.5,2120C 4681.27,2119.6 4680.94,2119.43 4680.5,2119.5C 4688.94,2111.25 4698.94,2106.92 4710.5,2106.5 Z"/></g>
<g><path style="opacity:0.706" fill="#0f5a9f" d="M 334.5,2106.5 C 332.167,2107.83 329.833,2107.83 327.5,2106.5C 329.941,2105.24 332.274,2105.24 334.5,2106.5 Z"/></g>
<g><path style="opacity:0.706" fill="#0f5a9f" d="M 782.5,2106.5 C 780.833,2107.83 779.167,2107.83 777.5,2106.5C 779.284,2105.28 780.95,2105.28 782.5,2106.5 Z"/></g>
<g><path style="opacity:0.706" fill="#0f5a9f" d="M 946.5,2106.5 C 944.167,2107.83 941.833,2107.83 939.5,2106.5C 941.833,2105.17 944.167,2105.17 946.5,2106.5 Z"/></g>
<g><path style="opacity:0.706" fill="#0f5a9f" d="M 1058.5,2106.5 C 1056.17,2107.83 1053.83,2107.83 1051.5,2106.5C 1053.94,2105.24 1056.27,2105.24 1058.5,2106.5 Z"/></g>
<g><path style="opacity:0.706" fill="#0f5a9f" d="M 1346.5,2106.5 C 1343.83,2107.83 1341.17,2107.83 1338.5,2106.5C 1341.17,2105.17 1343.83,2105.17 1346.5,2106.5 Z"/></g>
<g><path style="opacity:0.706" fill="#0f5a9f" d="M 1483.5,2106.5 C 1481.17,2107.83 1478.83,2107.83 1476.5,2106.5C 1478.73,2105.24 1481.06,2105.24 1483.5,2106.5 Z"/></g>
<g><path style="opacity:0.706" fill="#0f5a9f" d="M 1607.5,2106.5 C 1604.83,2107.83 1602.17,2107.83 1599.5,2106.5C 1602.17,2105.17 1604.83,2105.17 1607.5,2106.5 Z"/></g>
<g><path style="opacity:0.706" fill="#135ca1" d="M 1863.5,2106.5 C 1853.89,2107.36 1853.22,2107.36 1861.5,2106.5C 1862.4,2105.49 1863.06,2105.49 1863.5,2106.5 Z"/></g>
<g><path style="opacity:0.706" fill="#0f5a9f" d="M 2282.5,2106.5 C 2280.17,2107.83 2277.83,2107.83 2275.5,2106.5C 2277.73,2105.24 2280.06,2105.24 2282.5,2106.5 Z"/></g>
<g><path style="opacity:0.706" fill="#0f5a9f" d="M 3334.5,2106.5 C 3331.83,2107.83 3329.17,2107.83 3326.5,2106.5C 3329.17,2105.17 3331.83,2105.17 3334.5,2106.5 Z"/></g>
<g><path style="opacity:0.706" fill="#0f5a9f" d="M 3481.5,2106.5 C 3479.17,2107.83 3476.83,2107.83 3474.5,2106.5C 3476.73,2105.24 3479.06,2105.24 3481.5,2106.5 Z"/></g>
<g><path style="opacity:0.706" fill="#0f5a9f" d="M 4016.5,2106.5 C 4014.83,2107.83 4013.17,2107.83 4011.5,2106.5C 4013.28,2105.28 4014.95,2105.28 4016.5,2106.5 Z"/></g>
<g><path style="opacity:0.706" fill="#0f5a9f" d="M 4300.5,2106.5 C 4297.83,2107.83 4295.17,2107.83 4292.5,2106.5C 4295.06,2105.23 4297.73,2105.23 4300.5,2106.5 Z"/></g>
<g><path style="opacity:0.706" fill="#0f5a9f" d="M 4717.5,2106.5 C 4715.17,2107.83 4712.83,2107.83 4710.5,2106.5C 4712.73,2105.24 4715.06,2105.24 4717.5,2106.5 Z"/></g>
<g><path style="opacity:0.112" fill="#00529b" d="M 554.5,2108.5 C 544.75,2108.19 535.084,2108.53 525.5,2109.5C 529.951,2108.17 534.784,2107.51 540,2107.5C 545.012,2107.5 549.845,2107.83 554.5,2108.5 Z"/></g>
<g><path style="opacity:0.952" fill="#00539b" d="M 663.5,2107.5 C 673.833,2107.5 684.167,2107.5 694.5,2107.5C 694.5,2147.83 694.5,2188.17 694.5,2228.5C 683.643,2228.76 673.143,2228.43 663,2227.5C 662.173,2187.43 662.34,2147.43 663.5,2107.5 Z"/></g>
<g><path style="opacity:0.112" fill="#00529b" d="M 753.5,2108.5 C 743.985,2108.17 734.652,2108.51 725.5,2109.5C 725.167,2109.5 724.833,2109.5 724.5,2109.5C 728.951,2108.17 733.784,2107.51 739,2107.5C 744.012,2107.5 748.845,2107.83 753.5,2108.5 Z"/></g>
<g><path style="opacity:0.101" fill="#00529b" d="M 1091.5,2108.5 C 1101.24,2107.17 1111.07,2107.17 1121,2108.5C 1121.83,2146 1121.66,2183.34 1120.5,2220.5C 1120.67,2183.5 1120.5,2146.5 1120,2109.5C 1110.58,2108.51 1101.08,2108.18 1091.5,2108.5 Z"/></g>
<g><path style="opacity:0.957" fill="#00539b" d="M 1704.5,2108.5 C 1694.16,2108.33 1683.83,2108.5 1673.5,2109C 1684.24,2109.19 1694.91,2109.69 1705.5,2110.5C 1715.72,2135.66 1724.89,2161.33 1733,2187.5C 1741.94,2160.95 1751.44,2134.62 1761.5,2108.5C 1772.15,2107.5 1782.81,2107.17 1793.5,2107.5C 1793.19,2110.95 1792.35,2114.28 1791,2117.5C 1776.74,2154.62 1761.91,2191.46 1746.5,2228C 1737.26,2228.82 1728.09,2228.65 1719,2227.5C 1703.05,2187.4 1687.21,2148.06 1671.5,2109.5C 1671.71,2108.91 1672.04,2108.41 1672.5,2108C 1683.34,2107.17 1694.01,2107.34 1704.5,2108.5 Z"/></g>
<g><path style="opacity:0.957" fill="#00539b" d="M 2011.5,2107.5 C 2022.08,2107.18 2032.58,2107.51 2043,2108.5C 2043.67,2148.17 2043.67,2187.83 2043,2227.5C 2032.58,2228.49 2022.08,2228.82 2011.5,2228.5C 2011.5,2188.17 2011.5,2147.83 2011.5,2107.5 Z"/></g>
<g><path style="opacity:0.112" fill="#00529b" d="M 3410.5,2108.5 C 3415.15,2107.83 3419.99,2107.5 3425,2107.5C 3430.22,2107.51 3435.05,2108.17 3439.5,2109.5C 3429.92,2108.53 3420.25,2108.19 3410.5,2108.5 Z"/></g>
<g><path style="opacity:0.117" fill="#00529b" d="M 4405.5,2108.5 C 4405.5,2108.17 4405.5,2107.83 4405.5,2107.5C 4412.91,2106.87 4419.91,2107.54 4426.5,2109.5C 4419.59,2108.54 4412.59,2108.2 4405.5,2108.5 Z"/></g>
<g><path style="opacity:0.706" fill="#0f5a9f" d="M 292.5,2108.5 C 283.167,2109.83 273.833,2109.83 264.5,2108.5C 273.833,2107.17 283.167,2107.17 292.5,2108.5 Z"/></g>
<g><path style="opacity:0.939" fill="#00539b" d="M 813.5,2108.5 C 823.745,2108.86 833.912,2109.86 844,2111.5C 844.464,2110.91 844.631,2110.24 844.5,2109.5C 845.499,2148.66 845.832,2188 845.5,2227.5C 844.5,2227.5 843.5,2227.5 842.5,2227.5C 833.5,2226.17 824.5,2226.17 815.5,2227.5C 814.504,2227.41 813.671,2227.75 813,2228.5C 812.169,2188.33 812.335,2148.33 813.5,2108.5 Z"/></g>
<g><path style="opacity:0.706" fill="#0f5a9f" d="M 844.5,2109.5 C 844.631,2110.24 844.464,2110.91 844,2111.5C 833.912,2109.86 823.745,2108.86 813.5,2108.5C 823.325,2107.34 833.325,2107.18 843.5,2108C 844.056,2108.38 844.389,2108.88 844.5,2109.5 Z"/></g>
<g><path style="opacity:0.706" fill="#0f5a9f" d="M 1303.5,2108.5 C 1294.17,2109.83 1284.83,2109.83 1275.5,2108.5C 1284.83,2107.17 1294.17,2107.17 1303.5,2108.5 Z"/></g>
<g><path style="opacity:0.706" fill="#145da1" d="M 1704.5,2108.5 C 1705.34,2108.84 1705.67,2109.51 1705.5,2110.5C 1694.91,2109.69 1684.24,2109.19 1673.5,2109C 1683.83,2108.5 1694.16,2108.33 1704.5,2108.5 Z"/></g>
<g><path style="opacity:0.931" fill="#00539b" d="M 3023.5,2108.5 C 3033.5,2109.83 3043.5,2109.83 3053.5,2108.5C 3054.12,2108.61 3054.62,2108.94 3055,2109.5C 3055.67,2148.5 3055.67,2187.5 3055,2226.5C 3054.5,2227 3054,2227.5 3053.5,2228C 3043.26,2228.82 3033.09,2228.65 3023,2227.5C 3022.17,2187.66 3022.34,2148 3023.5,2108.5 Z"/></g>
<g><path style="opacity:0.706" fill="#0f5a9f" d="M 3053.5,2108.5 C 3043.5,2109.83 3033.5,2109.83 3023.5,2108.5C 3033.5,2107.17 3043.5,2107.17 3053.5,2108.5 Z"/></g>
<g><path style="opacity:0.961" fill="#00539b" d="M 4447.5,2108.5 C 4457.5,2109.83 4467.5,2109.83 4477.5,2108.5C 4478.66,2148 4478.83,2187.66 4478,2227.5C 4467.67,2228.83 4457.33,2228.83 4447,2227.5C 4446.17,2187.66 4446.34,2148 4447.5,2108.5 Z"/></g>
<g><path style="opacity:0.706" fill="#0f5a9f" d="M 4477.5,2108.5 C 4467.5,2109.83 4457.5,2109.83 4447.5,2108.5C 4457.5,2107.17 4467.5,2107.17 4477.5,2108.5 Z"/></g>
<g><path style="opacity:0.706" fill="#125ca0" d="M 724.5,2109.5 C 724.833,2109.5 725.167,2109.5 725.5,2109.5C 725.5,2148.5 725.5,2187.5 725.5,2226.5C 725.167,2226.5 724.833,2226.5 724.5,2226.5C 724.253,2187.45 724.253,2148.45 724.5,2109.5 Z"/></g>
<g><path style="opacity:0.706" fill="#0f5a9f" d="M 875.5,2109.5 C 876.833,2148.5 876.833,2187.5 875.5,2226.5C 874.167,2187.5 874.167,2148.5 875.5,2109.5 Z"/></g>
<g><path style="opacity:0.706" fill="#105ba0" d="M 563.5,2115.5 C 563.938,2115.43 564.272,2115.6 564.5,2116C 563.744,2117.38 563.078,2117.55 562.5,2116.5C 562.5,2115.83 562.833,2115.5 563.5,2115.5 Z"/></g>
<g><path style="opacity:0.706" fill="#105ba0" d="M 2093.5,2115.5 C 2093.94,2115.43 2094.27,2115.6 2094.5,2116C 2093.74,2117.38 2093.08,2117.55 2092.5,2116.5C 2092.5,2115.83 2092.83,2115.5 2093.5,2115.5 Z"/></g>
<g><path style="opacity:0.706" fill="#105ba0" d="M 4136.5,2115.5 C 4136.94,2115.43 4137.27,2115.6 4137.5,2116C 4136.74,2117.38 4136.08,2117.55 4135.5,2116.5C 4135.5,2115.83 4135.83,2115.5 4136.5,2115.5 Z"/></g>
<g><path style="opacity:0.706" fill="#105ba0" d="M 759.5,2116.5 C 759.938,2116.43 760.272,2116.6 760.5,2117C 759.744,2118.38 759.078,2118.55 758.5,2117.5C 758.5,2116.83 758.833,2116.5 759.5,2116.5 Z"/></g>
<g><path style="opacity:0.706" fill="#105aa0" d="M 1822.5,2115.5 C 1822.94,2115.43 1823.27,2115.6 1823.5,2116C 1822.67,2116.83 1821.83,2117.67 1821,2118.5C 1820.6,2118.27 1820.43,2117.94 1820.5,2117.5C 1820.83,2116.5 1821.5,2115.83 1822.5,2115.5 Z"/></g>
<g><path style="opacity:0.706" fill="#105aa0" d="M 1312.5,2116.5 C 1312.94,2116.43 1313.27,2116.6 1313.5,2117C 1312.67,2117.83 1311.83,2118.67 1311,2119.5C 1310.6,2119.27 1310.43,2118.94 1310.5,2118.5C 1310.83,2117.5 1311.5,2116.83 1312.5,2116.5 Z"/></g>
<g><path style="opacity:0.706" fill="#0f5a9f" d="M 1023.5,2118.5 C 1023.94,2118.43 1024.27,2118.6 1024.5,2119C 1023,2120.5 1021.5,2122 1020,2123.5C 1019.6,2123.27 1019.43,2122.94 1019.5,2122.5C 1020.5,2120.83 1021.83,2119.5 1023.5,2118.5 Z"/></g>
<g><path style="opacity:0.706" fill="#0f5a9f" d="M 1447.5,2118.5 C 1447.94,2118.43 1448.27,2118.6 1448.5,2119C 1447,2120.5 1445.5,2122 1444,2123.5C 1443.6,2123.27 1443.43,2122.94 1443.5,2122.5C 1444.5,2120.83 1445.83,2119.5 1447.5,2118.5 Z"/></g>
<g><path style="opacity:0.706" fill="#0f5a9f" d="M 2246.5,2118.5 C 2246.94,2118.43 2247.27,2118.6 2247.5,2119C 2246.33,2120.17 2245.17,2121.33 2244,2122.5C 2243.6,2122.27 2243.43,2121.94 2243.5,2121.5C 2244.17,2120.17 2245.17,2119.17 2246.5,2118.5 Z"/></g>
<g><path style="opacity:0.706" fill="#0f5a9f" d="M 2696.5,2118.5 C 2696.94,2118.43 2697.27,2118.6 2697.5,2119C 2696.33,2120.17 2695.17,2121.33 2694,2122.5C 2693.6,2122.27 2693.43,2121.94 2693.5,2121.5C 2694.17,2120.17 2695.17,2119.17 2696.5,2118.5 Z"/></g>
<g><path style="opacity:0.706" fill="#0f5a9f" d="M 3845.5,2118.5 C 3845.94,2118.43 3846.27,2118.6 3846.5,2119C 3844.67,2120.83 3842.83,2122.67 3841,2124.5C 3840.6,2124.27 3840.43,2123.94 3840.5,2123.5C 3841.83,2121.5 3843.5,2119.83 3845.5,2118.5 Z"/></g>
<g><path style="opacity:0.706" fill="#105ba0" d="M 4680.5,2119.5 C 4680.94,2119.43 4681.27,2119.6 4681.5,2120C 4680.74,2121.38 4680.08,2121.55 4679.5,2120.5C 4679.5,2119.83 4679.83,2119.5 4680.5,2119.5 Z"/></g>
<g><path style="opacity:0.706" fill="#105aa0" d="M 1563.5,2119.5 C 1563.94,2119.43 1564.27,2119.6 1564.5,2120C 1563.67,2120.83 1562.83,2121.67 1562,2122.5C 1561.6,2122.27 1561.43,2121.94 1561.5,2121.5C 1561.83,2120.5 1562.5,2119.83 1563.5,2119.5 Z"/></g>
<g><path style="opacity:0.706" fill="#105aa0" d="M 3444.5,2119.5 C 3444.94,2119.43 3445.27,2119.6 3445.5,2120C 3444.67,2120.83 3443.83,2121.67 3443,2122.5C 3442.6,2122.27 3442.43,2121.94 3442.5,2121.5C 3442.83,2120.5 3443.5,2119.83 3444.5,2119.5 Z"/></g>
<g><path style="opacity:0.706" fill="#105ba0" d="M 2084.5,2122.5 C 2084.94,2122.43 2085.27,2122.6 2085.5,2123C 2084.74,2124.38 2084.08,2124.55 2083.5,2123.5C 2083.5,2122.83 2083.83,2122.5 2084.5,2122.5 Z"/></g>
<g><path style="opacity:0.706" fill="#105ba0" d="M 1557.5,2125.5 C 1557.94,2125.43 1558.27,2125.6 1558.5,2126C 1557.74,2127.38 1557.08,2127.55 1556.5,2126.5C 1556.5,2125.83 1556.83,2125.5 1557.5,2125.5 Z"/></g>
<g><path style="opacity:0.96" fill="#00539b" d="M 2406.5,2138.5 C 2407.08,2139.55 2407.74,2139.38 2408.5,2138C 2408.27,2137.6 2407.94,2137.43 2407.5,2137.5C 2407.86,2135.81 2408.86,2134.81 2410.5,2134.5C 2411.08,2135.55 2411.74,2135.38 2412.5,2134C 2412.27,2133.6 2411.94,2133.43 2411.5,2133.5C 2421.62,2125.19 2432.95,2123.36 2445.5,2128C 2463.89,2137.63 2470.06,2152.47 2464,2172.5C 2455.27,2189.61 2441.44,2196.11 2422.5,2192C 2403.67,2183.84 2396.17,2169.67 2400,2149.5C 2401.6,2145.42 2403.77,2141.76 2406.5,2138.5 Z"/></g>
<g><path style="opacity:0.706" fill="#105ba0" d="M 4515.5,2127.5 C 4515.94,2127.43 4516.27,2127.6 4516.5,2128C 4515.74,2129.38 4515.08,2129.55 4514.5,2128.5C 4514.5,2127.83 4514.83,2127.5 4515.5,2127.5 Z"/></g>
<g><path style="opacity:0.706" fill="#105ba0" d="M 2079.5,2128.5 C 2079.94,2128.43 2080.27,2128.6 2080.5,2129C 2079.74,2130.38 2079.08,2130.55 2078.5,2129.5C 2078.5,2128.83 2078.83,2128.5 2079.5,2128.5 Z"/></g>
<g><path style="opacity:0.706" fill="#0f5a9f" d="M 2621.5,2128.5 C 2621.94,2128.43 2622.27,2128.6 2622.5,2129C 2621,2130.5 2619.5,2132 2618,2133.5C 2617.6,2133.27 2617.43,2132.94 2617.5,2132.5C 2618.5,2130.83 2619.83,2129.5 2621.5,2128.5 Z"/></g>
<g><path style="opacity:0.706" fill="#0f5a9f" d="M 3770.5,2128.5 C 3770.94,2128.43 3771.27,2128.6 3771.5,2129C 3770,2130.5 3768.5,2132 3767,2133.5C 3766.6,2133.27 3766.43,2132.94 3766.5,2132.5C 3767.5,2130.83 3768.83,2129.5 3770.5,2128.5 Z"/></g>
<g><path style="opacity:0.158" fill="#00529b" d="M 4105.5,2132.5 C 4098.24,2134.47 4090.57,2135.13 4082.5,2134.5C 4090.07,2133.8 4097.73,2133.14 4105.5,2132.5 Z"/></g>
<g><path style="opacity:0.706" fill="#105ba0" d="M 2411.5,2133.5 C 2411.94,2133.43 2412.27,2133.6 2412.5,2134C 2411.74,2135.38 2411.08,2135.55 2410.5,2134.5C 2410.5,2133.83 2410.83,2133.5 2411.5,2133.5 Z"/></g>
<g><path style="opacity:0.706" fill="#105ba0" d="M 2407.5,2137.5 C 2407.94,2137.43 2408.27,2137.6 2408.5,2138C 2407.74,2139.38 2407.08,2139.55 2406.5,2138.5C 2406.5,2137.83 2406.83,2137.5 2407.5,2137.5 Z"/></g>
<g><path style="opacity:0.706" fill="#115ba0" d="M 3485.5,2159.5 C 3486.5,2181.66 3486.83,2203.99 3486.5,2226.5C 3496.35,2226.17 3506.01,2226.51 3515.5,2227.5C 3505.67,2228.82 3495.83,2228.82 3486,2227.5C 3485.5,2204.84 3485.33,2182.17 3485.5,2159.5 Z"/></g>
<g><path style="opacity:0.706" fill="#115ba0" d="M 2785.5,2177.5 C 2785.06,2178.51 2784.4,2178.51 2783.5,2177.5C 2783.28,2176.27 2783.95,2176.27 2785.5,2177.5 Z"/></g>
<g><path style="opacity:0.706" fill="#105ba0" d="M 2150.5,2190.5 C 2151.55,2191.08 2151.38,2191.74 2150,2192.5C 2149.6,2192.27 2149.43,2191.94 2149.5,2191.5C 2149.5,2190.83 2149.83,2190.5 2150.5,2190.5 Z"/></g>
<g><path style="opacity:0.706" fill="#105ba0" d="M 1078.5,2195.5 C 1079.55,2196.08 1079.38,2196.74 1078,2197.5C 1077.6,2197.27 1077.43,2196.94 1077.5,2196.5C 1077.5,2195.83 1077.83,2195.5 1078.5,2195.5 Z"/></g>
<g><path style="opacity:0.706" fill="#105ba0" d="M 4313.5,2197.5 C 4313.94,2197.43 4314.27,2197.6 4314.5,2198C 4313.74,2199.38 4313.08,2199.55 4312.5,2198.5C 4312.5,2197.83 4312.83,2197.5 4313.5,2197.5 Z"/></g>
<g><path style="opacity:0.706" fill="#105aa0" d="M 599.5,2197.5 C 599.938,2197.43 600.272,2197.6 600.5,2198C 599.667,2198.83 598.833,2199.67 598,2200.5C 597.601,2200.27 597.435,2199.94 597.5,2199.5C 597.833,2198.5 598.5,2197.83 599.5,2197.5 Z"/></g>
<g><path style="opacity:0.706" fill="#105aa0" d="M 2144.5,2197.5 C 2144.94,2197.43 2145.27,2197.6 2145.5,2198C 2144.67,2198.83 2143.83,2199.67 2143,2200.5C 2142.6,2200.27 2142.43,2199.94 2142.5,2199.5C 2142.83,2198.5 2143.5,2197.83 2144.5,2197.5 Z"/></g>
<g><path style="opacity:0.706" fill="#105ba0" d="M 465.5,2201.5 C 465.938,2201.43 466.272,2201.6 466.5,2202C 465.744,2203.38 465.078,2203.55 464.5,2202.5C 464.5,2201.83 464.833,2201.5 465.5,2201.5 Z"/></g>
<g><path style="opacity:0.706" fill="#0f5a9f" d="M 4426.5,2202.5 C 4425.51,2202.67 4424.84,2202.34 4424.5,2201.5C 4425.62,2200.24 4426.29,2200.58 4426.5,2202.5 Z"/></g>
<g><path style="opacity:0.706" fill="#0f5a9f" d="M 2286.5,2225.5 C 2296.93,2226.14 2307.27,2226.81 2317.5,2227.5C 2307.58,2228.64 2297.58,2228.81 2287.5,2228C 2286.75,2227.33 2286.41,2226.5 2286.5,2225.5 Z"/></g>
<g><path style="opacity:0.706" fill="#0f5a9f" d="M 202.5,2227.5 C 212.653,2226.51 222.986,2226.17 233.5,2226.5C 233.631,2227.24 233.464,2227.91 233,2228.5C 222.961,2228.81 212.794,2228.47 202.5,2227.5 Z"/></g>
<g><path style="opacity:0.112" fill="#00529b" d="M 724.5,2226.5 C 724.833,2226.5 725.167,2226.5 725.5,2226.5C 734.652,2227.49 743.985,2227.83 753.5,2227.5C 748.845,2228.17 744.012,2228.5 739,2228.5C 733.784,2228.49 728.951,2227.83 724.5,2226.5 Z"/></g>
<g><path style="opacity:0.706" fill="#0f5a9f" d="M 842.5,2227.5 C 833.777,2228.76 824.777,2228.76 815.5,2227.5C 824.5,2226.17 833.5,2226.17 842.5,2227.5 Z"/></g>
<g><path style="opacity:0.706" fill="#135da1" d="M 1048.5,2227.5 C 1052.17,2226.17 1055.83,2226.17 1059.5,2227.5C 1055.83,2228.83 1052.17,2228.83 1048.5,2227.5 Z"/></g>
<g><path style="opacity:0.706" fill="#145da1" d="M 1379.5,2227.5 C 1379.06,2228.51 1378.4,2228.51 1377.5,2227.5C 1343.85,2226.77 1344.52,2226.77 1379.5,2227.5 Z"/></g>
<g><path style="opacity:0.098" fill="#00529b" d="M 1578.5,2226.5 C 1577.83,2227.17 1577.83,2227.17 1578.5,2226.5 Z"/></g>
<g><path style="opacity:0.706" fill="#135ca1" d="M 1071.5,2276.5 C 1067.17,2276.5 1062.83,2276.5 1058.5,2276.5C 1058.39,2275.88 1058.06,2275.38 1057.5,2275C 1062.5,2274.33 1067.5,2274.33 1072.5,2275C 1071.94,2275.38 1071.61,2275.88 1071.5,2276.5 Z"/></g>
</svg>
